<?xml version="1.0" encoding="UTF-8" standalone="no"?>
<!-- Created with Inkscape (http://www.inkscape.org/) -->

<svg
   width="881.26373mm"
   height="188.01753mm"
   viewBox="0 0 881.26373 188.01754"
   version="1.1"
   id="svg1"
   xml:space="preserve"
   inkscape:version="1.4 (e7c3feb100, 2024-10-09)"
   sodipodi:docname="home.svg"
   xmlns:inkscape="http://www.inkscape.org/namespaces/inkscape"
   xmlns:sodipodi="http://sodipodi.sourceforge.net/DTD/sodipodi-0.dtd"
   xmlns="http://www.w3.org/2000/svg"
   xmlns:svg="http://www.w3.org/2000/svg"><sodipodi:namedview
     id="namedview1"
     pagecolor="#ffffff"
     bordercolor="#999999"
     borderopacity="1"
     inkscape:showpageshadow="2"
     inkscape:pageopacity="0"
     inkscape:pagecheckerboard="0"
     inkscape:deskcolor="#d1d1d1"
     inkscape:document-units="mm"
     inkscape:zoom="0.1799523"
     inkscape:cx="1389.257"
     inkscape:cy="-172.26787"
     inkscape:window-width="1920"
     inkscape:window-height="1011"
     inkscape:window-x="0"
     inkscape:window-y="32"
     inkscape:window-maximized="1"
     inkscape:current-layer="layer1" /><defs
     id="defs1" /><g
     inkscape:label="Layer 1"
     inkscape:groupmode="layer"
     id="layer1"
     transform="translate(-9.936687,-654.80511)"><rect
       style="fill:none;fill-opacity:1;fill-rule:evenodd;stroke:none;stroke-width:0.14;stroke-linecap:square;stroke-linejoin:miter;stroke-miterlimit:3.3;stroke-dasharray:none;stroke-opacity:1"
       id="rect30"
       width="211.52666"
       height="211.52667"
       x="9.9366865"
       y="-17.198244" /><g
       id="g3"
       transform="translate(0,624.417)"><g
         id="text1"
         style="font-size:42.3333px;text-align:center;text-anchor:middle;fill:none;stroke-width:0.206051"
         aria-label="Protegiendo lo que más valoras, &#10;a tu lado en cada paso"><path
           style="font-family:'Bookman Old Style';-inkscape-font-specification:'Bookman Old Style';fill:#ffffff"
           d="m 267.63086,87.28678 c 0,-4.995329 -4.064,-8.08566 -10.58332,-8.08566 h -14.05466 v 1.312332 l 1.05833,0.127 c 2.20133,0.296333 2.75167,1.185332 2.75167,4.656663 V 101.9341 c 0,3.47133 -0.55034,4.36033 -2.75167,4.65667 l -1.05833,0.127 v 1.31233 h 12.36132 v -1.31233 l -1.56633,-0.127 c -2.11666,-0.16934 -2.75166,-1.22767 -2.75166,-4.65667 v -6.222993 h 5.96899 c 8.763,0 10.62566,-5.206996 10.62566,-8.424327 z m -4.318,0.127 c 0,2.751665 -1.35466,6.476995 -6.98499,6.476995 h -5.29166 V 83.68845 c 0,-2.285999 0.762,-2.709332 4.82599,-2.709332 3.89467,0 7.45066,1.269999 7.45066,6.434662 z m 23.53736,2.074332 c 0,-1.396999 -1.27,-2.370665 -3.09034,-2.370665 -3.51366,0 -5.54566,2.497665 -7.15432,3.767664 v -3.386664 h -1.43934 c -2.62466,0.507999 -4.02166,0.677333 -6.39232,0.846666 v 1.269999 l 1.016,0.08467 c 2.15899,0.169334 2.79399,0.973666 2.79399,3.513664 v 9.948324 c 0,2.32833 -0.762,3.302 -2.62466,3.51366 l -1.05833,0.0847 v 1.27 h 11.38765 v -1.27 l -1.05833,-0.0847 c -1.86266,-0.21166 -2.62466,-1.18533 -2.62466,-3.51366 V 92.790109 c 1.524,-1.693332 2.66699,-2.370664 3.89466,-2.370664 0.71967,0 1.016,0.126999 1.778,0.634999 0.71967,0.550333 1.397,0.761999 2.159,0.761999 1.397,0 2.413,-0.973665 2.413,-2.328331 z m 21.75937,8.424327 c 0,-3.894664 -2.07433,-10.794992 -10.45632,-10.794992 -8.21266,0 -10.24466,6.900328 -10.24466,10.710325 0,6.392328 4.10633,10.583328 10.41399,10.583328 6.13833,0 10.28699,-4.23333 10.28699,-10.498661 z m -4.318,0.211666 c 0,5.376325 -2.20133,8.593665 -5.92666,8.593665 -3.89466,0 -6.13833,-3.25967 -6.13833,-8.974664 0,-5.418663 2.37067,-8.932327 5.969,-8.932327 3.81,0 6.09599,3.513664 6.09599,9.313326 z m 21.33595,7.323665 -1.143,-0.93134 c -1.43934,1.651 -2.413,2.20134 -3.683,2.20134 -2.159,0 -3.175,-1.73567 -3.175,-5.588 V 88.895446 h 6.05366 v -1.396999 h -6.05366 v -7.704661 h -1.60866 c 0.0423,5.206996 -1.82034,7.535328 -5.969,7.704661 v 1.396999 h 3.556 V 103.0771 c 0,4.27567 3.34433,5.334 6.05366,5.334 2.49766,0 4.445,-0.97367 5.969,-2.96333 z m 20.0236,-2.32834 -1.397,-0.67733 c -1.524,2.794 -3.47133,4.064 -6.09599,4.064 -5.75733,0 -7.19666,-4.52966 -7.19666,-10.710326 h 14.68965 c 0.0423,-6.900328 -6.09599,-8.678327 -9.22866,-8.678327 -5.79966,0 -9.99066,4.36033 -9.99066,10.456325 0,4.741328 3.00567,10.837328 10.45633,10.837328 3.89466,0 6.60399,-1.60867 8.76299,-5.29167 z m -4.40266,-9.016988 h -10.15999 c 0.46566,-2.793998 1.60866,-5.291663 5.16466,-5.291663 4.36033,0 5.08,4.10633 4.99533,5.164663 z m 28.575,-8.085661 c 0,-1.058332 -0.93134,-1.820332 -2.286,-1.820332 -3.09033,0 -4.445,2.412998 -5.16466,3.767664 -1.69334,-0.634999 -2.667,-0.846666 -3.97933,-0.846666 -4.826,0 -8.72067,3.344331 -8.72067,7.535328 0,2.455331 1.143,4.444996 3.429,6.011325 -2.83633,0.93134 -4.14866,2.24367 -4.14866,4.23333 0,1.69334 0.93133,2.794 3.09033,3.556 -3.13266,1.18533 -4.445,2.54 -4.445,4.61433 0,3.09033 4.48733,5.16466 10.75266,5.16466 6.858,0 11.30299,-2.70933 11.30299,-6.85799 0,-4.191 -3.68299,-4.826 -6.39233,-5.207 l -8.08566,-1.10066 c -1.90499,-0.254 -2.75166,-0.762 -2.75166,-1.73567 0,-0.762 0.71967,-1.60866 1.94733,-2.24366 1.69333,0.55033 2.54,0.67733 3.97933,0.67733 6.985,0 8.89,-4.360331 8.89,-7.111995 0,-2.328332 -1.31234,-4.529664 -3.51367,-6.011329 0.84667,-1.269999 1.524,-1.820332 2.24367,-1.820332 0.80433,0 1.143,0.804333 2.24366,0.804333 0.93133,0 1.60867,-0.677333 1.60867,-1.608666 z m -6.90033,8.424327 c 0,3.259664 -0.889,5.968992 -4.445,5.968992 -3.00566,0 -4.48733,-1.947328 -4.48733,-6.011325 0,-3.725331 1.69333,-5.926662 4.61433,-5.926662 2.921,0 4.318,1.947332 4.318,5.968995 z m 3.76766,18.287982 c 0,1.56634 -1.73566,3.937 -8.33966,3.937 -4.86833,0 -8.21266,-1.651 -8.21266,-4.02166 0,-1.60867 1.22767,-2.96333 3.51367,-3.81 l 8.67832,1.05833 c 3.13267,0.381 4.36033,1.18534 4.36033,2.83633 z m 15.24003,-4.69899 v -1.27 l -1.016,-0.0847 c -1.905,-0.21166 -2.62466,-1.18533 -2.62466,-3.51366 V 87.498447 h -1.43933 c -2.58234,0.465666 -3.97934,0.677333 -6.223,0.846666 v 1.269999 l 0.84667,0.08467 c 2.20133,0.211667 2.79399,0.973666 2.79399,3.513664 v 9.948324 c 0,2.32833 -0.762,3.302 -2.62466,3.51366 l -1.05833,0.0847 v 1.27 z m -3.25966,-26.669982 c 0,-1.354666 -1.143,-2.497665 -2.45533,-2.497665 -1.397,0 -2.54,1.100666 -2.54,2.497665 0,1.354666 1.143,2.497665 2.49766,2.497665 1.35467,0 2.49767,-1.142999 2.49767,-2.497665 z m 24.55327,21.759312 -1.397,-0.67733 c -1.52399,2.794 -3.47133,4.064 -6.09599,4.064 -5.75733,0 -7.19666,-4.52966 -7.19666,-10.710326 h 14.68965 c 0.0423,-6.900328 -6.09599,-8.678327 -9.22866,-8.678327 -5.79966,0 -9.99066,4.36033 -9.99066,10.456325 0,4.741328 3.00567,10.837328 10.45633,10.837328 3.89466,0 6.60399,-1.60867 8.76299,-5.29167 z m -4.40266,-9.016988 H 388.6618 c 0.46566,-2.793998 1.60866,-5.291663 5.16466,-5.291663 4.36033,0 5.08,4.10633 4.99533,5.164663 z m 33.10466,13.927658 v -1.27 l -1.05833,-0.0847 c -1.86267,-0.21166 -2.62467,-1.18533 -2.62467,-3.51366 V 92.705443 c 0,-3.513664 -2.41299,-5.587996 -6.39233,-5.587996 -3.21733,0 -5.71499,1.058333 -8.72066,3.725331 v -3.344331 h -1.43933 c -2.62466,0.507999 -4.02166,0.677333 -6.39233,0.846666 v 1.269999 l 1.016,0.08467 c 2.159,0.169334 2.794,0.973666 2.794,3.513664 v 9.948324 c 0,2.32833 -0.762,3.302 -2.62466,3.51366 l -1.05834,0.0847 v 1.27 h 11.38766 v -1.27 l -1.05833,-0.0847 c -1.86267,-0.21166 -2.62467,-1.18533 -2.62467,-3.51366 V 92.705443 c 2.62467,-2.370665 5.12233,-3.555998 7.493,-3.555998 2.32833,0 3.59833,1.481666 3.59833,4.233331 v 9.778994 c 0,2.32833 -0.762,3.302 -2.62466,3.51366 l -1.05834,0.0847 v 1.27 z m 25.48464,0 v -1.27 l -0.508,-0.0847 c -1.94733,-0.42333 -2.58233,-1.27 -2.58233,-3.51366 V 77.677121 h -1.69333 c -2.11667,0.846666 -3.09033,1.100666 -5.969,1.439332 v 1.312332 l 0.889,0.08467 c 2.286,0.211666 2.75167,0.973666 2.75167,4.74133 v 4.10633 c -2.286,-1.566332 -4.445,-2.243665 -7.02733,-2.243665 -5.29166,0 -9.31333,4.61433 -9.31333,10.710325 0,5.079995 3.00567,10.583325 9.017,10.583325 4.40266,0 6.73099,-2.58233 7.32366,-3.21733 v 2.83633 z m -7.11199,-4.99533 c -1.905,2.32833 -3.72533,3.34433 -6.096,3.34433 -4.78366,0 -5.92666,-5.29166 -5.92666,-8.635994 0,-3.047998 1.016,-8.72066 6.26533,-8.72066 2.032,0 3.47133,0.634999 5.75733,2.539998 z m 30.60702,-5.122331 c 0,-3.894664 -2.07434,-10.794992 -10.45633,-10.794992 -8.21266,0 -10.24466,6.900328 -10.24466,10.710325 0,6.392328 4.10633,10.583328 10.41399,10.583328 6.13833,0 10.287,-4.23333 10.287,-10.498661 z m -4.318,0.211666 c 0,5.376325 -2.20133,8.593665 -5.92666,8.593665 -3.89467,0 -6.13833,-3.25967 -6.13833,-8.974664 0,-5.418663 2.37066,-8.932327 5.96899,-8.932327 3.81,0 6.096,3.513664 6.096,9.313326 z m 31.41127,9.905995 v -1.27 l -0.97367,-0.0847 c -1.905,-0.21166 -2.62466,-1.18533 -2.62466,-3.51366 V 77.677121 h -1.69333 c -2.11667,0.846666 -3.09034,1.100666 -5.969,1.439332 v 1.312332 l 0.889,0.08467 c 2.286,0.211666 2.75166,0.973666 2.75166,4.74133 v 17.906985 c 0,2.32833 -0.71966,3.302 -2.62466,3.51366 l -1.016,0.0847 v 1.27 z m 22.85994,-10.117661 c 0,-3.894664 -2.07433,-10.794992 -10.45632,-10.794992 -8.21266,0 -10.24466,6.900328 -10.24466,10.710325 0,6.392328 4.10633,10.583328 10.41399,10.583328 6.13833,0 10.28699,-4.23333 10.28699,-10.498661 z m -4.31799,0.211666 c 0,5.376325 -2.20134,8.593665 -5.92667,8.593665 -3.89466,0 -6.13833,-3.25967 -6.13833,-8.974664 0,-5.418663 2.37067,-8.932327 5.969,-8.932327 3.81,0 6.096,3.513664 6.096,9.313326 z m 44.23829,19.557985 v -1.27 l -1.05834,-0.0847 c -1.86266,-0.16934 -2.62466,-1.22767 -2.62466,-3.51367 V 87.498447 h -2.20133 l -1.10067,2.412998 c -2.159,-1.862665 -4.445,-2.793998 -6.81566,-2.793998 -4.318,0 -9.56733,3.640664 -9.56733,10.964325 0,8.000998 6.13833,10.329328 9.22866,10.329328 2.159,0 3.89467,-0.67734 6.43466,-2.54 v 6.94266 c 0,2.286 -0.76199,3.34433 -2.62466,3.51367 l -1.05833,0.0847 v 1.27 z m -7.70467,-13.84299 c -2.11666,1.905 -3.64066,2.667 -5.29166,2.667 -3.51366,0 -6.05366,-3.51366 -6.05366,-8.508995 0,-7.111994 3.89466,-8.974659 6.477,-8.974659 1.94733,0 3.34433,0.719666 4.86832,2.582331 z m 34.33233,4.191 v -1.27 l -1.05833,-0.0847 c -1.86267,-0.21166 -2.62467,-1.18533 -2.62467,-3.51366 V 87.498447 h -1.43933 c -2.20133,0.507999 -3.048,0.592666 -6.39233,0.846666 v 1.269999 l 1.016,0.08467 c 2.159,0.169334 2.794,0.973666 2.794,3.513664 v 9.440324 c -2.83633,2.49766 -5.33399,3.72533 -7.40833,3.72533 -2.66699,0 -3.85233,-1.43933 -3.85233,-4.65666 V 87.498447 h -1.43933 c -2.20133,0.507999 -3.13266,0.634999 -6.39233,0.846666 v 1.269999 l 1.016,0.08467 c 2.159,0.169334 2.794,0.973666 2.794,3.513664 v 8.847654 c 0,5.08 3.25966,6.35 6.30766,6.35 3.048,0 5.37633,-1.016 8.97466,-3.937 v 3.556 z m 21.92866,-4.91067 -1.397,-0.67733 c -1.524,2.794 -3.47133,4.064 -6.096,4.064 -5.75732,0 -7.19666,-4.52966 -7.19666,-10.710326 h 14.68966 c 0.0423,-6.900328 -6.096,-8.678327 -9.22866,-8.678327 -5.79966,0 -9.99066,4.36033 -9.99066,10.456325 0,4.741328 3.00566,10.837328 10.45633,10.837328 3.89466,0 6.60399,-1.60867 8.76299,-5.29167 z m -4.40266,-9.016988 h -10.16 c 0.46567,-2.793998 1.60867,-5.291663 5.16467,-5.291663 4.36033,0 5.07999,4.10633 4.99533,5.164663 z m 58.46228,13.927658 v -1.27 l -1.05833,-0.0847 c -1.86267,-0.21166 -2.62467,-1.18533 -2.62467,-3.51366 V 92.790109 c 0,-3.555997 -2.11666,-5.672662 -5.63033,-5.672662 -2.83633,0 -4.99533,0.931333 -8.04333,3.513664 -1.14299,-2.539998 -2.75166,-3.513664 -5.79966,-3.513664 -2.96333,0 -4.99533,0.846666 -7.70466,3.217331 v -2.836331 h -1.43933 c -2.45533,0.465666 -3.76766,0.634999 -6.26533,0.846666 v 1.269999 l 0.889,0.08467 c 2.20133,0.211667 2.794,0.973666 2.794,3.513664 v 9.948324 c 0,2.32833 -0.762,3.302 -2.62467,3.51366 l -1.05833,0.0847 v 1.27 h 11.09133 v -1.27 l -0.762,-0.0847 c -1.143,-0.16933 -2.62467,-0.381 -2.62467,-3.51366 V 92.239776 c 2.45533,-2.116665 4.14867,-2.920997 6.096,-2.920997 2.413,0 3.47133,1.396999 3.47133,4.48733 v 9.355661 c 0,2.32833 -0.71967,3.25966 -2.62467,3.51366 l -0.889,0.0847 v 1.27 h 11.049 v -1.27 l -0.889,-0.0847 c -1.905,-0.254 -2.62467,-1.18533 -2.62467,-3.51366 V 92.239776 c 2.58233,-2.158998 4.27567,-2.920997 6.223,-2.920997 2.20133,0 3.34433,1.566332 3.34433,4.61433 v 9.228661 c 0,2.794 -1.10067,3.25966 -2.62467,3.51366 l -0.762,0.0847 v 1.27 z m 25.35768,-1.27 -0.80433,-1.10067 c -0.71967,0.635 -1.18534,0.84667 -1.905,0.84667 -2.32834,0 -2.37067,-2.11667 -2.37067,-4.14866 v -8.974664 c 0,-5.079997 -4.69899,-6.265329 -8.12799,-6.265329 -4.14867,0 -9.22866,2.116665 -9.22866,5.376329 0,1.016 0.93133,1.862666 2.032,1.862666 1.18533,0 2.15899,-0.973666 2.15899,-2.158999 l -0.0423,-1.185332 c 0,-1.227666 1.905,-2.201332 4.27566,-2.201332 3.00567,0 4.91067,1.481666 4.91067,3.809997 v 3.386664 c -4.40267,0.465667 -14.26632,1.185333 -14.26632,7.15433 0,3.048 2.75166,5.24933 6.51932,5.24933 2.83633,0 4.91067,-0.889 7.747,-3.25967 0.80433,2.286 2.24366,3.25967 4.74133,3.25967 1.778,0 3.175,-0.508 4.36033,-1.651 z m -9.10166,-3.51367 c -2.37067,2.24367 -4.14867,3.13267 -6.26533,3.13267 -2.032,0 -3.683,-1.60867 -3.683,-3.64066 0,-2.836336 3.556,-4.699001 9.94833,-5.249334 z m 1.143,-22.775311 c 0,-0.889 -0.635,-1.566333 -1.48167,-1.566333 -0.84666,0 -1.98966,0.508 -3.21733,1.439333 l -4.02166,2.878664 0.21166,0.592666 5.88433,-1.227665 c 1.82033,-0.381 2.62467,-1.016 2.62467,-2.116665 z m 28.27864,21.081981 c 0,-2.878662 -1.69333,-4.571994 -5.37633,-5.460993 l -5.88433,-1.439332 c -1.43933,-0.338667 -3.30199,-0.804333 -3.30199,-2.666998 0,-1.820332 1.77799,-3.174998 4.27566,-3.174998 3.21733,0 6.01133,2.031999 7.40833,5.376329 h 1.35466 l -1.35466,-6.519328 h -1.18534 l -0.42333,1.523999 c -1.82033,-1.439332 -3.683,-2.074332 -6.05366,-2.074332 -4.318,0 -7.74699,2.709331 -7.74699,6.180662 0,2.666998 1.82033,4.23333 6.30766,5.376329 l 5.41866,1.354662 c 2.11667,0.55034 3.09033,1.43934 3.09033,2.794 0,2.20133 -2.37066,3.89467 -5.46099,3.89467 -2.62467,0 -5.207,-1.143 -6.77333,-3.048 -0.762,-0.889 -1.18534,-1.73567 -1.778,-3.34433 h -1.43933 l 1.43933,7.53532 h 1.397 l 0.46566,-1.77799 c 2.286,1.73566 4.064,2.32833 6.81567,2.32833 5.07999,0 8.80532,-2.921 8.80532,-6.858 z m 37.54963,-12.699988 v -1.354665 h -8.72066 v 1.269999 c 2.83634,0.423333 3.175,1.735665 2.286,3.936997 l -4.40266,11.599327 -4.78366,-12.572993 c -0.80434,-2.455332 -0.16934,-2.666998 2.37066,-2.963331 v -1.269999 h -10.32932 v 1.312332 c 1.90499,0.296333 2.49766,0.761999 3.47133,2.920998 l 6.73099,16.298323 h 2.49767 l 6.47699,-14.985991 c 1.143,-2.497665 2.413,-3.72533 4.40266,-4.190997 z m 23.83367,17.906988 -0.80434,-1.10067 c -0.71966,0.635 -1.18533,0.84667 -1.905,0.84667 -2.32833,0 -2.37066,-2.11667 -2.37066,-4.14866 v -8.974664 c 0,-5.079997 -4.699,-6.265329 -8.12799,-6.265329 -4.14867,0 -9.22866,2.116665 -9.22866,5.376329 0,1.016 0.93133,1.862666 2.03199,1.862666 1.18534,0 2.159,-0.973666 2.159,-2.158999 l -0.0423,-1.185332 c 0,-1.227666 1.905,-2.201332 4.27566,-2.201332 3.00567,0 4.91067,1.481666 4.91067,3.809997 v 3.386664 c -4.40267,0.465667 -14.26633,1.185333 -14.26633,7.15433 0,3.048 2.75167,5.24933 6.51933,5.24933 2.83633,0 4.91066,-0.889 7.747,-3.25967 0.80433,2.286 2.24366,3.25967 4.74133,3.25967 1.77799,0 3.17499,-0.508 4.36033,-1.651 z m -9.10166,-3.51367 c -2.37067,2.24367 -4.14867,3.13267 -6.26533,3.13267 -2.032,0 -3.683,-1.60867 -3.683,-3.64066 0,-2.836336 3.556,-4.699001 9.94833,-5.249334 z m 20.91268,4.78367 v -1.27 l -0.97367,-0.0847 c -1.905,-0.21166 -2.62466,-1.18533 -2.62466,-3.51366 V 77.677121 h -1.69334 c -2.11666,0.846666 -3.09033,1.100666 -5.96899,1.439332 v 1.312332 l 0.889,0.08467 c 2.286,0.211666 2.75166,0.973666 2.75166,4.74133 v 17.906985 c 0,2.32833 -0.71966,3.302 -2.62466,3.51366 l -1.016,0.0847 v 1.27 z m 22.85994,-10.117661 c 0,-3.894664 -2.07433,-10.794992 -10.45633,-10.794992 -8.21266,0 -10.24465,6.900328 -10.24465,10.710325 0,6.392328 4.10633,10.583328 10.41399,10.583328 6.13833,0 10.28699,-4.23333 10.28699,-10.498661 z m -4.318,0.211666 c 0,5.376325 -2.20133,8.593665 -5.92666,8.593665 -3.89466,0 -6.13833,-3.25967 -6.13833,-8.974664 0,-5.418663 2.37067,-8.932327 5.969,-8.932327 3.80999,0 6.09599,3.513664 6.09599,9.313326 z m 24.68027,-8.635993 c 0,-1.396999 -1.27,-2.370665 -3.09033,-2.370665 -3.51366,0 -5.54566,2.497665 -7.15433,3.767664 v -3.386664 h -1.43933 c -2.62466,0.507999 -4.02166,0.677333 -6.39233,0.846666 v 1.269999 l 1.016,0.08467 c 2.159,0.169334 2.794,0.973666 2.794,3.513664 v 9.948324 c 0,2.32833 -0.762,3.302 -2.62466,3.51366 l -1.05834,0.0847 v 1.27 h 11.38766 v -1.27 l -1.05833,-0.0847 c -1.86267,-0.21166 -2.62467,-1.18533 -2.62467,-3.51366 V 92.790109 c 1.524,-1.693332 2.667,-2.370664 3.89467,-2.370664 0.71966,0 1.016,0.126999 1.778,0.634999 0.71966,0.550333 1.397,0.761999 2.15899,0.761999 1.397,0 2.413,-0.973665 2.413,-2.328331 z m 24.55337,17.271988 -0.80433,-1.10067 c -0.71966,0.635 -1.18533,0.84667 -1.905,0.84667 -2.32833,0 -2.37066,-2.11667 -2.37066,-4.14866 v -8.974664 c 0,-5.079997 -4.699,-6.265329 -8.128,-6.265329 -4.14866,0 -9.22866,2.116665 -9.22866,5.376329 0,1.016 0.93134,1.862666 2.032,1.862666 1.18534,0 2.159,-0.973666 2.159,-2.158999 l -0.0423,-1.185332 c 0,-1.227666 1.905,-2.201332 4.27566,-2.201332 3.00567,0 4.91066,1.481666 4.91066,3.809997 v 3.386664 c -4.40266,0.465667 -14.26632,1.185333 -14.26632,7.15433 0,3.048 2.75167,5.24933 6.51933,5.24933 2.83633,0 4.91066,-0.889 7.74699,-3.25967 0.80434,2.286 2.24367,3.25967 4.74133,3.25967 1.778,0 3.175,-0.508 4.36033,-1.651 z m -9.10166,-3.51367 c -2.37066,2.24367 -4.14866,3.13267 -6.26532,3.13267 -2.032,0 -3.683,-1.60867 -3.683,-3.64066 0,-2.836336 3.556,-4.699001 9.94832,-5.249334 z m 29.42162,-1.69333 c 0,-2.878662 -1.69333,-4.571994 -5.37633,-5.460993 l -5.88433,-1.439332 c -1.43933,-0.338667 -3.302,-0.804333 -3.302,-2.666998 0,-1.820332 1.778,-3.174998 4.27567,-3.174998 3.21733,0 6.01132,2.031999 7.40832,5.376329 h 1.35467 l -1.35467,-6.519328 h -1.18533 l -0.42333,1.523999 c -1.82033,-1.439332 -3.683,-2.074332 -6.05366,-2.074332 -4.318,0 -7.747,2.709331 -7.747,6.180662 0,2.666998 1.82033,4.23333 6.30766,5.376329 l 5.41867,1.354662 c 2.11666,0.55034 3.09033,1.43934 3.09033,2.794 0,2.20133 -2.37067,3.89467 -5.461,3.89467 -2.62466,0 -5.20699,-1.143 -6.77333,-3.048 -0.762,-0.889 -1.18533,-1.73567 -1.778,-3.34433 h -1.43933 l 1.43933,7.53532 h 1.397 l 0.46567,-1.77799 c 2.286,1.73566 4.064,2.32833 6.81566,2.32833 5.08,0 8.80533,-2.921 8.80533,-6.858 z m 10.83731,5.16467 c 0,-2.07434 -1.27,-3.64067 -2.96333,-3.64067 -1.524,0 -2.667,1.18533 -2.667,2.794 0,1.35467 0.93134,2.413 2.159,2.413 0.55033,0 0.889,-0.127 1.56633,-0.635 -0.381,1.98966 -1.35466,3.25966 -3.13266,4.27566 l 0.46567,0.84667 c 2.96333,-1.31233 4.57199,-3.429 4.57199,-6.05366 z"
           id="path3" /><path
           style="font-family:'Bookman Old Style';-inkscape-font-specification:'Bookman Old Style';fill:#ffffff"
           d="m 366.01347,160.19465 -0.80433,-1.10067 c -0.71967,0.635 -1.18534,0.84667 -1.905,0.84667 -2.32833,0 -2.37067,-2.11667 -2.37067,-4.14867 v -8.97466 c 0,-5.07999 -4.69899,-6.26532 -8.12799,-6.26532 -4.14866,0 -9.22866,2.11666 -9.22866,5.37632 0,1.016 0.93133,1.86267 2.032,1.86267 1.18533,0 2.159,-0.97367 2.159,-2.159 l -0.0423,-1.18533 c 0,-1.22767 1.905,-2.20133 4.27567,-2.20133 3.00566,0 4.91066,1.48166 4.91066,3.80999 v 3.38667 c -4.40266,0.46567 -14.26632,1.18533 -14.26632,7.15433 0,3.04799 2.75166,5.24933 6.51933,5.24933 2.83633,0 4.91066,-0.889 7.74699,-3.25967 0.80433,2.286 2.24366,3.25967 4.74133,3.25967 1.778,0 3.175,-0.508 4.36033,-1.651 z m -9.10166,-3.51367 c -2.37067,2.24367 -4.14866,3.13267 -6.26533,3.13267 -2.032,0 -3.683,-1.60867 -3.683,-3.64067 0,-2.83633 3.556,-4.69899 9.94833,-5.24933 z m 38.77729,2.20133 -1.143,-0.93133 c -1.43933,1.651 -2.413,2.20133 -3.683,2.20133 -2.159,0 -3.17499,-1.73566 -3.17499,-5.58799 v -12.23433 h 6.05366 V 140.933 h -6.05366 v -7.70467 h -1.60867 c 0.0423,5.207 -1.82033,7.53533 -5.969,7.70467 v 1.39699 h 3.556 v 14.18166 c 0,4.27566 3.34433,5.334 6.05366,5.334 2.49767,0 4.445,-0.97367 5.969,-2.96334 z m 27.30494,2.58234 v -1.27 l -1.05833,-0.0847 c -1.86267,-0.21167 -2.62467,-1.18533 -2.62467,-3.51366 V 140.933 h -1.43933 c -2.20133,0.50799 -3.048,0.59266 -6.39233,0.84666 v 1.27 l 1.016,0.0847 c 2.159,0.16933 2.794,0.97366 2.794,3.51366 v 9.44033 c -2.83633,2.49766 -5.334,3.72533 -7.40833,3.72533 -2.667,0 -3.85233,-1.43933 -3.85233,-4.65667 V 140.933 h -1.43933 c -2.20133,0.50799 -3.13267,0.63499 -6.39233,0.84666 v 1.27 l 1.016,0.0847 c 2.159,0.16933 2.794,0.97366 2.794,3.51366 v 8.84766 c 0,5.08 3.25966,6.35 6.30766,6.35 3.048,0 5.37633,-1.016 8.97466,-3.937 v 3.556 z m 26.79698,0 v -1.27 l -0.97367,-0.0847 c -1.90499,-0.21167 -2.62466,-1.18533 -2.62466,-3.51366 v -25.48465 h -1.69333 c -2.11667,0.84667 -3.09033,1.10067 -5.969,1.43933 v 1.31233 l 0.889,0.0847 c 2.286,0.21167 2.75167,0.97367 2.75167,4.74133 v 17.90699 c 0,2.32833 -0.71967,3.30199 -2.62467,3.51366 l -1.016,0.0847 v 1.27 z m 25.44228,-1.27 -0.80433,-1.10067 c -0.71967,0.635 -1.18533,0.84667 -1.905,0.84667 -2.32833,0 -2.37066,-2.11667 -2.37066,-4.14867 v -8.97466 c 0,-5.07999 -4.699,-6.26532 -8.128,-6.26532 -4.14866,0 -9.22866,2.11666 -9.22866,5.37632 0,1.016 0.93134,1.86267 2.032,1.86267 1.18533,0 2.159,-0.97367 2.159,-2.159 l -0.0423,-1.18533 c 0,-1.22767 1.905,-2.20133 4.27566,-2.20133 3.00566,0 4.91066,1.48166 4.91066,3.80999 v 3.38667 c -4.40266,0.46567 -14.26632,1.18533 -14.26632,7.15433 0,3.04799 2.75167,5.24933 6.51933,5.24933 2.83633,0 4.91066,-0.889 7.74699,-3.25967 0.80434,2.286 2.24367,3.25967 4.74133,3.25967 1.778,0 3.175,-0.508 4.36033,-1.651 z m -9.10166,-3.51367 c -2.37066,2.24367 -4.14866,3.13267 -6.26533,3.13267 -2.03199,0 -3.68299,-1.60867 -3.68299,-3.64067 0,-2.83633 3.55599,-4.69899 9.94832,-5.24933 z m 33.82431,4.78367 v -1.27 l -0.508,-0.0847 c -1.94733,-0.42333 -2.58233,-1.27 -2.58233,-3.51366 v -25.48465 h -1.69333 c -2.11667,0.84667 -3.09033,1.10067 -5.969,1.43933 v 1.31233 l 0.889,0.0847 c 2.286,0.21167 2.75167,0.97367 2.75167,4.74133 v 4.10633 c -2.286,-1.56633 -4.445,-2.24366 -7.02733,-2.24366 -5.29167,0 -9.31333,4.61433 -9.31333,10.71032 0,5.08 3.00567,10.58333 9.01699,10.58333 4.40267,0 6.731,-2.58234 7.32367,-3.21733 v 2.83633 z m -7.11199,-4.99533 c -1.905,2.32833 -3.72533,3.34433 -6.096,3.34433 -4.78366,0 -5.92666,-5.29167 -5.92666,-8.636 0,-3.04799 1.016,-8.72066 6.26533,-8.72066 2.032,0 3.47133,0.635 5.75733,2.54 z m 30.607,-5.12233 c 0,-3.89467 -2.07433,-10.79499 -10.45633,-10.79499 -8.21266,0 -10.24466,6.90032 -10.24466,10.71032 0,6.39233 4.10634,10.58333 10.414,10.58333 6.13833,0 10.28699,-4.23333 10.28699,-10.49866 z m -4.318,0.21166 c 0,5.37633 -2.20133,8.59366 -5.92666,8.59366 -3.89466,0 -6.13833,-3.25966 -6.13833,-8.97466 0,-5.41866 2.37067,-8.93232 5.969,-8.93232 3.80999,0 6.09599,3.51366 6.09599,9.31332 z m 40.08961,4.99533 -1.39699,-0.67733 c -1.524,2.794 -3.47134,4.064 -6.096,4.064 -5.75733,0 -7.19666,-4.52967 -7.19666,-10.71033 h 14.68965 c 0.0423,-6.90033 -6.09599,-8.67832 -9.22866,-8.67832 -5.79966,0 -9.99065,4.36033 -9.99065,10.45632 0,4.74133 3.00566,10.83733 10.45632,10.83733 3.89466,0 6.604,-1.60867 8.76299,-5.29167 z m -4.40266,-9.01699 h -10.15999 c 0.46566,-2.794 1.60866,-5.29166 5.16466,-5.29166 4.36033,0 5.08,4.10633 4.99533,5.16466 z m 33.10466,13.92766 v -1.27 l -1.05833,-0.0847 c -1.86267,-0.21167 -2.62467,-1.18533 -2.62467,-3.51366 v -10.45633 c 0,-3.51366 -2.41299,-5.58799 -6.39232,-5.58799 -3.21733,0 -5.715,1.05833 -8.72066,3.72533 v -3.3443 h -1.43934 c -2.62466,0.50799 -4.02166,0.67733 -6.39232,0.84666 v 1.27 l 1.01599,0.0847 c 2.159,0.16933 2.794,0.97366 2.794,3.51366 v 9.94833 c 0,2.32833 -0.762,3.30199 -2.62466,3.51366 l -1.05833,0.0847 v 1.27 h 11.38765 v -1.27 l -1.05833,-0.0847 c -1.86266,-0.21167 -2.62466,-1.18533 -2.62466,-3.51366 v -10.45633 c 2.62466,-2.37066 5.12233,-3.556 7.49299,-3.556 2.32833,0 3.59833,1.48167 3.59833,4.23333 v 9.779 c 0,2.32833 -0.762,3.30199 -2.62466,3.51366 l -1.05834,0.0847 v 1.27 z m 35.09428,-4.572 -1.22767,-0.762 c -2.37066,2.96333 -4.10633,4.02166 -6.68866,4.02166 -4.36033,0 -7.28133,-3.51366 -7.28133,-8.76299 0,-4.10633 1.22767,-9.14399 6.18066,-9.14399 2.20133,0 4.191,1.31233 4.191,2.794 l -0.0423,1.48166 c 0,1.22767 0.93133,2.159 2.159,2.159 1.22766,0 2.15899,-1.016 2.15899,-2.32833 0,-2.32833 -2.79399,-5.79966 -8.63599,-5.79966 -8.25499,0 -10.32933,6.85799 -10.32933,10.66799 0,6.30766 4.191,10.62566 10.414,10.62566 4.06399,0 6.90032,-1.524 9.10166,-4.953 z m 25.781,3.302 -0.80434,-1.10067 c -0.71966,0.635 -1.18533,0.84667 -1.90499,0.84667 -2.32834,0 -2.37067,-2.11667 -2.37067,-4.14867 v -8.97466 c 0,-5.07999 -4.699,-6.26532 -8.12799,-6.26532 -4.14867,0 -9.22866,2.11666 -9.22866,5.37632 0,1.016 0.93133,1.86267 2.032,1.86267 1.18533,0 2.15899,-0.97367 2.15899,-2.159 l -0.0423,-1.18533 c 0,-1.22767 1.905,-2.20133 4.27566,-2.20133 3.00567,0 4.91067,1.48166 4.91067,3.80999 v 3.38667 c -4.40267,0.46567 -14.26633,1.18533 -14.26633,7.15433 0,3.04799 2.75167,5.24933 6.51933,5.24933 2.83633,0 4.91067,-0.889 7.747,-3.25967 0.80433,2.286 2.24366,3.25967 4.74133,3.25967 1.778,0 3.17499,-0.508 4.36033,-1.651 z m -9.10166,-3.51367 c -2.37067,2.24367 -4.14867,3.13267 -6.26533,3.13267 -2.032,0 -3.683,-1.60867 -3.683,-3.64067 0,-2.83633 3.556,-4.69899 9.94833,-5.24933 z m 33.8243,4.78367 v -1.27 l -0.508,-0.0847 c -1.94733,-0.42333 -2.58233,-1.27 -2.58233,-3.51366 v -25.48465 h -1.69333 c -2.11666,0.84667 -3.09033,1.10067 -5.96899,1.43933 v 1.31233 l 0.88899,0.0847 c 2.286,0.21167 2.75167,0.97367 2.75167,4.74133 v 4.10633 c -2.286,-1.56633 -4.445,-2.24366 -7.02733,-2.24366 -5.29166,0 -9.31333,4.61433 -9.31333,10.71032 0,5.08 3.00567,10.58333 9.017,10.58333 4.40266,0 6.73099,-2.58234 7.32366,-3.21733 v 2.83633 z m -7.11199,-4.99533 c -1.905,2.32833 -3.72533,3.34433 -6.096,3.34433 -4.78366,0 -5.92666,-5.29167 -5.92666,-8.636 0,-3.04799 1.016,-8.72066 6.26533,-8.72066 2.032,0 3.47133,0.635 5.75733,2.54 z m 33.18936,3.72533 -0.80433,-1.10067 c -0.71966,0.635 -1.18533,0.84667 -1.905,0.84667 -2.32833,0 -2.37066,-2.11667 -2.37066,-4.14867 v -8.97466 c 0,-5.07999 -4.699,-6.26532 -8.128,-6.26532 -4.14866,0 -9.22866,2.11666 -9.22866,5.37632 0,1.016 0.93134,1.86267 2.032,1.86267 1.18534,0 2.159,-0.97367 2.159,-2.159 l -0.0423,-1.18533 c 0,-1.22767 1.905,-2.20133 4.27566,-2.20133 3.00567,0 4.91066,1.48166 4.91066,3.80999 v 3.38667 c -4.40266,0.46567 -14.26632,1.18533 -14.26632,7.15433 0,3.04799 2.75167,5.24933 6.51933,5.24933 2.83633,0 4.91066,-0.889 7.74699,-3.25967 0.80434,2.286 2.24367,3.25967 4.74133,3.25967 1.778,0 3.175,-0.508 4.36033,-1.651 z m -9.10166,-3.51367 c -2.37066,2.24367 -4.14866,3.13267 -6.26532,3.13267 -2.032,0 -3.683,-1.60867 -3.683,-3.64067 0,-2.83633 3.556,-4.69899 9.94832,-5.24933 z m 47.03228,-5.58799 c 0,-5.37633 -3.302,-10.54099 -9.22866,-10.54099 -2.794,0 -4.99533,1.01599 -6.90033,3.17499 V 140.933 h -1.43933 c -2.45533,0.46566 -3.76767,0.63499 -6.26533,0.84666 v 1.27 l 0.889,0.0847 c 2.20133,0.21166 2.794,0.97366 2.794,3.51366 v 19.60032 c 0,2.286 -0.762,3.34433 -2.62467,3.51366 l -1.05833,0.0847 v 1.27 h 11.38766 v -1.27 l -1.05834,-0.0847 c -1.86266,-0.16933 -2.62466,-1.22766 -2.62466,-3.51366 v -6.56166 c 1.94733,1.48166 4.02166,2.159 6.68866,2.159 5.37633,0 9.44033,-4.65667 9.44033,-10.75266 z m -4.318,0.508 c 0,4.82599 -2.62466,8.33966 -6.18066,8.33966 -2.11667,0 -4.02167,-0.80434 -5.63033,-2.32833 v -11.76866 c 1.778,-2.37067 3.429,-3.38667 5.58799,-3.38667 3.76767,0 6.223,3.59833 6.223,9.144 z m 30.734,8.59366 -0.80433,-1.10067 c -0.71967,0.635 -1.18533,0.84667 -1.905,0.84667 -2.32833,0 -2.37066,-2.11667 -2.37066,-4.14867 v -8.97466 c 0,-5.07999 -4.699,-6.26532 -8.128,-6.26532 -4.14866,0 -9.22866,2.11666 -9.22866,5.37632 0,1.016 0.93134,1.86267 2.032,1.86267 1.18533,0 2.159,-0.97367 2.159,-2.159 l -0.0423,-1.18533 c 0,-1.22767 1.905,-2.20133 4.27566,-2.20133 3.00567,0 4.91066,1.48166 4.91066,3.80999 v 3.38667 c -4.40266,0.46567 -14.26632,1.18533 -14.26632,7.15433 0,3.04799 2.75167,5.24933 6.51933,5.24933 2.83633,0 4.91066,-0.889 7.74699,-3.25967 0.80434,2.286 2.24367,3.25967 4.74133,3.25967 1.778,0 3.175,-0.508 4.36033,-1.651 z m -9.10166,-3.51367 c -2.37066,2.24367 -4.14866,3.13267 -6.26532,3.13267 -2.032,0 -3.683,-1.60867 -3.683,-3.64067 0,-2.83633 3.556,-4.69899 9.94832,-5.24933 z m 29.42165,-1.69333 c 0,-2.87866 -1.69333,-4.572 -5.37633,-5.46099 l -5.88433,-1.43934 c -1.43933,-0.33866 -3.302,-0.80433 -3.302,-2.66699 0,-1.82034 1.778,-3.175 4.27567,-3.175 3.21733,0 6.01132,2.032 7.40832,5.37633 h 1.35467 l -1.35467,-6.51933 h -1.18533 l -0.42333,1.524 c -1.82033,-1.43934 -3.683,-2.07433 -6.05366,-2.07433 -4.318,0 -7.747,2.70933 -7.747,6.18066 0,2.667 1.82033,4.23333 6.30766,5.37633 l 5.41867,1.35466 c 2.11666,0.55034 3.09033,1.43933 3.09033,2.794 0,2.20133 -2.37067,3.89466 -5.461,3.89466 -2.62466,0 -5.207,-1.143 -6.77333,-3.04799 -0.762,-0.889 -1.18533,-1.73567 -1.778,-3.34433 h -1.43933 l 1.43933,7.53532 h 1.397 l 0.46567,-1.778 c 2.286,1.73567 4.064,2.32834 6.81566,2.32834 5.08,0 8.80533,-2.921 8.80533,-6.858 z m 23.66433,-3.64066 c 0,-3.89467 -2.07433,-10.79499 -10.45632,-10.79499 -8.21266,0 -10.24466,6.90032 -10.24466,10.71032 0,6.39233 4.10633,10.58333 10.41399,10.58333 6.13833,0 10.28699,-4.23333 10.28699,-10.49866 z m -4.31799,0.21166 c 0,5.37633 -2.20134,8.59366 -5.92667,8.59366 -3.89466,0 -6.13833,-3.25966 -6.13833,-8.97466 0,-5.41866 2.37067,-8.93232 5.969,-8.93232 3.81,0 6.096,3.51366 6.096,9.31332 z"
           id="path4" /></g><g
         id="g1"
         transform="translate(-22.054456,-20.584159)"><path
           d="m 158.93572,167.32622 v -5.29539 c -8.37013,-1.53737 -12.98224,-4.27048 -18.27763,-11.10324 l -28.35596,-40.14246 c 28.18514,-4.09966 31.60152,-21.864833 31.60152,-30.405783 0,-18.277633 -14.86125,-29.380869 -39.45919,-29.380869 H 34.921127 v 5.295389 l 4.270475,0.512457 c 8.882588,1.195733 11.103235,4.782933 11.103235,18.790091 v 67.131865 c 0,14.00716 -2.220647,17.59436 -11.103235,18.79009 l -4.270475,0.51246 v 5.29539 h 49.708329 v -5.29539 l -6.149484,-0.51246 c -8.711769,-0.85409 -11.103235,-4.95375 -11.103235,-18.79009 v -30.23496 h 24.597936 l 38.434277,54.8329 z M 125.4552,81.062623 c 0,8.028493 -3.24556,24.085477 -29.380871,24.085477 H 67.376737 V 68.080379 c 0,-5.978665 3.245561,-10.078322 25.281212,-10.078322 21.864831,0 32.797251,7.686856 32.797251,23.060566 z"
           id="text28"
           style="font-size:170.819px;line-height:1.15;font-family:'Bookman Old Style';-inkscape-font-specification:'Bookman Old Style';letter-spacing:0px;word-spacing:0px;fill:#ffffff;fill-rule:evenodd;stroke-width:0.499999;stroke-linecap:square;stroke-miterlimit:3.3"
           aria-label="R" /><path
           id="path28"
           style="font-size:70.5556px;line-height:1.15;font-family:'Bookman Old Style';-inkscape-font-specification:'Bookman Old Style';letter-spacing:0px;word-spacing:0px;fill:#ffffff;fill-rule:evenodd;stroke-width:0.499999;stroke-linecap:square;stroke-miterlimit:3.3"
           d="M 168.61218,50.972273 144.10903,116.0304 h 9.90637 l 17.93224,-50.044695 18.01611,50.044695 3.17033,8.17355 7.67308,22.52012 c 1.55697,4.55961 2.33584,7.42372 2.33584,8.59142 0,1.61255 -0.80711,2.94709 -2.41965,4.00359 -0.83408,0.55604 -2.58566,0.83449 -5.2547,0.83449 -1.27892,0 -2.58522,0.0552 -3.91974,0.16633 v 7.00626 h 41.45327 v -7.00626 h -1.83415 c -3.05828,0 -5.50537,-0.77891 -7.34027,-2.33584 -1.77937,-1.61255 -3.55919,-4.86546 -5.33855,-9.75872 L 182.37445,50.972273 Z" /><path
           style="fill:none;fill-rule:evenodd;stroke:#f89633;stroke-width:4.99999;stroke-linecap:square;stroke-linejoin:miter;stroke-miterlimit:3.3;stroke-dasharray:none;stroke-opacity:1"
           d="m 145.13978,112.14152 c 9.68424,12.1053 14.52636,19.36848 14.52636,19.36848 l 63.37161,-71.854739"
           id="path29"
           sodipodi:nodetypes="ccc" /><path
           style="font-size:52.9167px;font-family:'Bookman Old Style';-inkscape-font-specification:'Bookman Old Style';fill:#ffffff;stroke-width:0.206051"
           d="m 64.058663,215.5477 c 0,-6.29708 -3.704169,-8.67833 -11.218341,-10.4775 l -6.614587,-1.5875 c -5.13292,-1.27 -7.196671,-2.91042 -7.196671,-5.76792 0,-3.175 3.386669,-5.66209 7.778755,-5.66209 5.080003,0 9.313339,2.69875 13.017508,8.36084 l 1.693334,-0.635 -3.227919,-9.57792 h -1.905001 l -0.635,1.905 c -2.963335,-1.79917 -5.979587,-2.59292 -10.001256,-2.59292 -8.837089,0 -12.117924,5.715 -12.117924,9.47209 0,7.14375 8.255005,8.99584 10.90084,9.68375 l 7.090837,1.79917 c 5.238754,1.27 7.037921,2.8575 7.037921,6.0325 0,4.49792 -4.127502,7.88459 -9.577922,7.88459 -6.08542,0 -11.430007,-3.81 -15.134176,-10.90084 l -1.957918,0.635 3.439586,12.11793 h 1.957918 l 1.005417,-2.64584 c 3.227918,2.27542 6.72042,3.33375 10.953756,3.33375 8.255005,0 14.710843,-5.02708 14.710843,-11.37709 z m 27.357926,4.55084 -1.746251,-0.84667 c -1.905001,3.49251 -4.339169,5.08001 -7.620004,5.08001 -7.196671,0 -8.995839,-5.66209 -8.995839,-13.38793 h 18.362094 c 0.05292,-8.62542 -7.620004,-10.84792 -11.53584,-10.84792 -7.249588,0 -12.488341,5.45042 -12.488341,13.07042 0,5.92667 3.757086,13.54668 13.070425,13.54668 4.868336,0 8.255005,-2.01084 10.953756,-6.61459 z M 85.913253,208.82728 H 73.213245 c 0.582084,-3.4925 2.010834,-6.61458 6.455837,-6.61458 5.45042,0 6.350004,5.13292 6.244171,6.45583 z m 35.718797,-10.10709 c 0,-1.32291 -1.16417,-2.27541 -2.8575,-2.27541 -3.86292,0 -5.55626,3.01625 -6.45584,4.70958 -2.11667,-0.79375 -3.33375,-1.05833 -4.97417,-1.05833 -6.0325,0 -10.900839,4.18042 -10.900839,9.41917 0,3.06917 1.428751,5.55625 4.286249,7.51417 -3.545416,1.16417 -5.185833,2.80459 -5.185833,5.29167 0,2.11667 1.164167,3.4925 3.862919,4.445 -3.915836,1.48167 -5.556254,3.17501 -5.556254,5.76792 0,3.86292 5.60917,6.45584 13.440838,6.45584 8.57251,0 14.12876,-3.38667 14.12876,-8.5725 0,-5.23876 -4.60375,-6.03251 -7.99042,-6.50876 l -10.10709,-1.37583 c -2.38125,-0.3175 -3.439584,-0.9525 -3.439584,-2.16959 0,-0.9525 0.899584,-2.01083 2.434164,-2.80458 2.11667,0.68792 3.17501,0.84667 4.97417,0.84667 8.73126,0 11.11251,-5.45042 11.11251,-8.89001 0,-2.91042 -1.64042,-5.66209 -4.39209,-7.51417 1.05834,-1.5875 1.90501,-2.27542 2.80459,-2.27542 1.00542,0 1.42875,1.00542 2.80458,1.00542 1.16417,0 2.01084,-0.84667 2.01084,-2.01084 z m -8.62542,10.53043 c 0,4.07458 -1.11125,7.46125 -5.55626,7.46125 -3.75708,0 -5.60917,-2.43417 -5.60917,-7.51417 0,-4.65667 2.11667,-7.40834 5.76792,-7.40834 3.65126,0 5.39751,2.43417 5.39751,7.46126 z m 4.70958,22.86001 c 0,1.95792 -2.16958,4.92125 -10.42459,4.92125 -6.08542,0 -10.265836,-2.06375 -10.265836,-5.02708 0,-2.01084 1.534585,-3.70417 4.392086,-4.76251 l 10.84792,1.32292 c 3.91584,0.47625 5.45042,1.48167 5.45042,3.54542 z m 38.36465,-5.87375 v -1.5875 l -1.32291,-0.10584 c -2.32834,-0.26458 -3.28084,-1.48166 -3.28084,-4.39208 v -19.57918 h -1.79917 c -2.75166,0.635 -3.81,0.74083 -7.99042,1.05833 v 1.5875 l 1.27,0.10584 c 2.69875,0.21166 3.49251,1.21708 3.49251,4.39208 v 11.80043 c -3.54542,3.12208 -6.66751,4.65667 -9.26043,4.65667 -3.33375,0 -4.81542,-1.79917 -4.81542,-5.82084 v -17.78001 h -1.79916 c -2.75167,0.635 -3.91584,0.79375 -7.99043,1.05833 v 1.5875 l 1.27001,0.10584 c 2.69875,0.21166 3.4925,1.21708 3.4925,4.39208 v 11.05959 c 0,6.35001 4.07458,7.93751 7.88459,7.93751 3.81,0 6.72042,-1.27 11.21834,-4.92126 v 4.44501 z m 25.08254,-23.17752 c 0,-1.74625 -1.5875,-2.96333 -3.86292,-2.96333 -4.39208,0 -6.93209,3.12208 -8.94292,4.70958 v -4.23333 h -1.79917 c -3.28083,0.635 -5.02708,0.84667 -7.99042,1.05833 v 1.5875 l 1.27,0.10584 c 2.69875,0.21166 3.4925,1.21708 3.4925,4.39208 v 12.43543 c 0,2.91042 -0.9525,4.1275 -3.28083,4.39208 l -1.32292,0.10584 v 1.5875 h 14.23459 v -1.5875 l -1.32292,-0.10584 c -2.32833,-0.26458 -3.28083,-1.48166 -3.28083,-4.39208 v -12.96459 c 1.905,-2.11667 3.33375,-2.96334 4.86834,-2.96334 0.89958,0 1.27,0.15875 2.2225,0.79375 0.89958,0.68792 1.74625,0.9525 2.69875,0.9525 1.74625,0 3.01625,-1.21708 3.01625,-2.91042 z m 27.19926,10.53043 c 0,-4.86834 -2.59292,-13.49376 -13.07043,-13.49376 -10.26584,0 -12.80584,8.62542 -12.80584,13.38792 0,7.99042 5.13292,13.22918 13.01751,13.22918 7.67292,0 12.85876,-5.29167 12.85876,-13.12334 z m -5.39751,0.26458 c 0,6.72042 -2.75167,10.74209 -7.40833,10.74209 -4.86834,0 -7.67293,-4.07459 -7.67293,-11.21834 0,-6.77334 2.96334,-11.16542 7.46126,-11.16542 4.7625,0 7.62,4.39208 7.62,11.64167 z m 32.96707,4.28625 c 0,-3.59833 -2.11667,-5.715 -6.72042,-6.82625 l -7.35542,-1.79917 c -1.79917,-0.42333 -4.1275,-1.00542 -4.1275,-3.33375 0,-2.27542 2.2225,-3.96875 5.34458,-3.96875 4.02167,0 7.51417,2.54 9.26043,6.72042 h 1.69333 l -1.69333,-8.14917 h -1.48167 l -0.52917,1.905 c -2.27542,-1.79917 -4.60375,-2.59292 -7.56709,-2.59292 -5.3975,0 -9.68375,3.38667 -9.68375,7.72584 0,3.33375 2.27542,5.29167 7.88459,6.72042 l 6.77333,1.69333 c 2.64584,0.68792 3.86292,1.79917 3.86292,3.4925 0,2.75167 -2.96333,4.86834 -6.82625,4.86834 -3.28084,0 -6.50876,-1.42875 -8.46667,-3.81 -0.9525,-1.11125 -1.48167,-2.16959 -2.22251,-4.18042 h -1.79916 l 1.79916,9.41917 h 1.74626 l 0.58208,-2.2225 c 2.8575,2.16958 5.08,2.91042 8.51959,2.91042 6.35,0 11.00667,-3.65125 11.00667,-8.57251 z"
           id="text2"
           aria-label="Seguros" /></g></g></g></svg>
