<?xml version="1.0" encoding="UTF-8" standalone="no"?>
<!-- Created with Inkscape (http://www.inkscape.org/) -->

<svg
   width="967.71899mm"
   height="188.01753mm"
   viewBox="0 0 967.71899 188.01754"
   version="1.1"
   id="svg1"
   xml:space="preserve"
   inkscape:version="1.4 (e7c3feb100, 2024-10-09)"
   sodipodi:docname="home2.svg"
   xmlns:inkscape="http://www.inkscape.org/namespaces/inkscape"
   xmlns:sodipodi="http://sodipodi.sourceforge.net/DTD/sodipodi-0.dtd"
   xmlns="http://www.w3.org/2000/svg"
   xmlns:svg="http://www.w3.org/2000/svg"><sodipodi:namedview
     id="namedview1"
     pagecolor="#ffffff"
     bordercolor="#999999"
     borderopacity="1"
     inkscape:showpageshadow="2"
     inkscape:pageopacity="0"
     inkscape:pagecheckerboard="0"
     inkscape:deskcolor="#d1d1d1"
     inkscape:document-units="mm"
     inkscape:zoom="0.1799523"
     inkscape:cx="2189.4691"
     inkscape:cy="855.78234"
     inkscape:window-width="1920"
     inkscape:window-height="1011"
     inkscape:window-x="0"
     inkscape:window-y="32"
     inkscape:window-maximized="1"
     inkscape:current-layer="g3" /><defs
     id="defs1" /><g
     inkscape:label="Layer 1"
     inkscape:groupmode="layer"
     id="layer1"
     transform="translate(44.464303,-303.40412)"><rect
       style="fill:none;fill-opacity:1;fill-rule:evenodd;stroke:none;stroke-width:0.14;stroke-linecap:square;stroke-linejoin:miter;stroke-miterlimit:3.3;stroke-dasharray:none;stroke-opacity:1"
       id="rect30"
       width="211.52666"
       height="211.52667"
       x="9.9366865"
       y="-17.198244" /><g
       id="g3"
       transform="translate(-54.40099,273.01601)"><g
         id="g6"><g
           id="text1"
           style="font-size:42.3333px;text-align:center;text-anchor:middle;fill:none;stroke-width:0.206051"
           aria-label="Protegiendo lo que más valoras, &#10;a tu lado en cada paso"
           transform="translate(-20.232848,-63.873467)"><text
             xml:space="preserve"
             style="font-size:45.8611px;font-family:'Bookman Old Style';-inkscape-font-specification:'Bookman Old Style';text-align:center;writing-mode:lr-tb;direction:ltr;text-anchor:middle;fill:#ffffff;stroke:none;stroke-width:0.264583"
             x="634.88495"
             y="172.94371"
             id="text1-3"><tspan
               sodipodi:role="line"
               id="tspan1-2"
               style="font-style:normal;font-variant:normal;font-weight:normal;font-stretch:normal;font-size:45.8611px;font-family:Montserrat;-inkscape-font-specification:Montserrat;fill:#ffffff;stroke:none;stroke-width:0.264583"
               x="634.88495"
               y="172.94371">Protegiendo lo que más valoras,</tspan><tspan
               sodipodi:role="line"
               style="font-style:normal;font-variant:normal;font-weight:normal;font-stretch:normal;font-size:45.8611px;font-family:Montserrat;-inkscape-font-specification:Montserrat;fill:#ffffff;stroke:none;stroke-width:0.264583"
               x="634.88495"
               y="231.28331"
               id="tspan3">a tu lado en cada paso</tspan></text></g><g
           id="g1"
           transform="translate(-22.054456,-20.584159)"><path
             d="m 158.93572,167.32622 v -5.29539 c -8.37013,-1.53737 -12.98224,-4.27048 -18.27763,-11.10324 l -28.35596,-40.14246 c 28.18514,-4.09966 31.60152,-21.864833 31.60152,-30.405783 0,-18.277633 -14.86125,-29.380869 -39.45919,-29.380869 H 34.921127 v 5.295389 l 4.270475,0.512457 c 8.882588,1.195733 11.103235,4.782933 11.103235,18.790091 v 67.131865 c 0,14.00716 -2.220647,17.59436 -11.103235,18.79009 l -4.270475,0.51246 v 5.29539 h 49.708329 v -5.29539 l -6.149484,-0.51246 c -8.711769,-0.85409 -11.103235,-4.95375 -11.103235,-18.79009 v -30.23496 h 24.597936 l 38.434277,54.8329 z M 125.4552,81.062623 c 0,8.028493 -3.24556,24.085477 -29.380871,24.085477 H 67.376737 V 68.080379 c 0,-5.978665 3.245561,-10.078322 25.281212,-10.078322 21.864831,0 32.797251,7.686856 32.797251,23.060566 z"
             id="text28"
             style="font-size:170.819px;line-height:1.15;font-family:'Bookman Old Style';-inkscape-font-specification:'Bookman Old Style';letter-spacing:0px;word-spacing:0px;fill:#ffffff;fill-rule:evenodd;stroke-width:0.499999;stroke-linecap:square;stroke-miterlimit:3.3"
             aria-label="R" /><path
             id="path28"
             style="font-size:70.5556px;line-height:1.15;font-family:'Bookman Old Style';-inkscape-font-specification:'Bookman Old Style';letter-spacing:0px;word-spacing:0px;fill:#ffffff;fill-rule:evenodd;stroke-width:0.499999;stroke-linecap:square;stroke-miterlimit:3.3"
             d="M 168.61218,50.972273 144.10903,116.0304 h 9.90637 l 17.93224,-50.044695 18.01611,50.044695 3.17033,8.17355 7.67308,22.52012 c 1.55697,4.55961 2.33584,7.42372 2.33584,8.59142 0,1.61255 -0.80711,2.94709 -2.41965,4.00359 -0.83408,0.55604 -2.58566,0.83449 -5.2547,0.83449 -1.27892,0 -2.58522,0.0552 -3.91974,0.16633 v 7.00626 h 41.45327 v -7.00626 h -1.83415 c -3.05828,0 -5.50537,-0.77891 -7.34027,-2.33584 -1.77937,-1.61255 -3.55919,-4.86546 -5.33855,-9.75872 L 182.37445,50.972273 Z" /><path
             style="fill:none;fill-rule:evenodd;stroke:#f89633;stroke-width:4.99999;stroke-linecap:square;stroke-linejoin:miter;stroke-miterlimit:3.3;stroke-dasharray:none;stroke-opacity:1"
             d="m 145.13978,112.14152 c 9.68424,12.1053 14.52636,19.36848 14.52636,19.36848 l 63.37161,-71.854739"
             id="path29"
             sodipodi:nodetypes="ccc" /><path
             style="font-size:52.9167px;font-family:'Bookman Old Style';-inkscape-font-specification:'Bookman Old Style';fill:#ffffff;stroke-width:0.206051"
             d="m 64.058663,215.5477 c 0,-6.29708 -3.704169,-8.67833 -11.218341,-10.4775 l -6.614587,-1.5875 c -5.13292,-1.27 -7.196671,-2.91042 -7.196671,-5.76792 0,-3.175 3.386669,-5.66209 7.778755,-5.66209 5.080003,0 9.313339,2.69875 13.017508,8.36084 l 1.693334,-0.635 -3.227919,-9.57792 h -1.905001 l -0.635,1.905 c -2.963335,-1.79917 -5.979587,-2.59292 -10.001256,-2.59292 -8.837089,0 -12.117924,5.715 -12.117924,9.47209 0,7.14375 8.255005,8.99584 10.90084,9.68375 l 7.090837,1.79917 c 5.238754,1.27 7.037921,2.8575 7.037921,6.0325 0,4.49792 -4.127502,7.88459 -9.577922,7.88459 -6.08542,0 -11.430007,-3.81 -15.134176,-10.90084 l -1.957918,0.635 3.439586,12.11793 h 1.957918 l 1.005417,-2.64584 c 3.227918,2.27542 6.72042,3.33375 10.953756,3.33375 8.255005,0 14.710843,-5.02708 14.710843,-11.37709 z m 27.357926,4.55084 -1.746251,-0.84667 c -1.905001,3.49251 -4.339169,5.08001 -7.620004,5.08001 -7.196671,0 -8.995839,-5.66209 -8.995839,-13.38793 h 18.362094 c 0.05292,-8.62542 -7.620004,-10.84792 -11.53584,-10.84792 -7.249588,0 -12.488341,5.45042 -12.488341,13.07042 0,5.92667 3.757086,13.54668 13.070425,13.54668 4.868336,0 8.255005,-2.01084 10.953756,-6.61459 z M 85.913253,208.82728 H 73.213245 c 0.582084,-3.4925 2.010834,-6.61458 6.455837,-6.61458 5.45042,0 6.350004,5.13292 6.244171,6.45583 z m 35.718797,-10.10709 c 0,-1.32291 -1.16417,-2.27541 -2.8575,-2.27541 -3.86292,0 -5.55626,3.01625 -6.45584,4.70958 -2.11667,-0.79375 -3.33375,-1.05833 -4.97417,-1.05833 -6.0325,0 -10.900839,4.18042 -10.900839,9.41917 0,3.06917 1.428751,5.55625 4.286249,7.51417 -3.545416,1.16417 -5.185833,2.80459 -5.185833,5.29167 0,2.11667 1.164167,3.4925 3.862919,4.445 -3.915836,1.48167 -5.556254,3.17501 -5.556254,5.76792 0,3.86292 5.60917,6.45584 13.440838,6.45584 8.57251,0 14.12876,-3.38667 14.12876,-8.5725 0,-5.23876 -4.60375,-6.03251 -7.99042,-6.50876 l -10.10709,-1.37583 c -2.38125,-0.3175 -3.439584,-0.9525 -3.439584,-2.16959 0,-0.9525 0.899584,-2.01083 2.434164,-2.80458 2.11667,0.68792 3.17501,0.84667 4.97417,0.84667 8.73126,0 11.11251,-5.45042 11.11251,-8.89001 0,-2.91042 -1.64042,-5.66209 -4.39209,-7.51417 1.05834,-1.5875 1.90501,-2.27542 2.80459,-2.27542 1.00542,0 1.42875,1.00542 2.80458,1.00542 1.16417,0 2.01084,-0.84667 2.01084,-2.01084 z m -8.62542,10.53043 c 0,4.07458 -1.11125,7.46125 -5.55626,7.46125 -3.75708,0 -5.60917,-2.43417 -5.60917,-7.51417 0,-4.65667 2.11667,-7.40834 5.76792,-7.40834 3.65126,0 5.39751,2.43417 5.39751,7.46126 z m 4.70958,22.86001 c 0,1.95792 -2.16958,4.92125 -10.42459,4.92125 -6.08542,0 -10.265836,-2.06375 -10.265836,-5.02708 0,-2.01084 1.534585,-3.70417 4.392086,-4.76251 l 10.84792,1.32292 c 3.91584,0.47625 5.45042,1.48167 5.45042,3.54542 z m 38.36465,-5.87375 v -1.5875 l -1.32291,-0.10584 c -2.32834,-0.26458 -3.28084,-1.48166 -3.28084,-4.39208 v -19.57918 h -1.79917 c -2.75166,0.635 -3.81,0.74083 -7.99042,1.05833 v 1.5875 l 1.27,0.10584 c 2.69875,0.21166 3.49251,1.21708 3.49251,4.39208 v 11.80043 c -3.54542,3.12208 -6.66751,4.65667 -9.26043,4.65667 -3.33375,0 -4.81542,-1.79917 -4.81542,-5.82084 v -17.78001 h -1.79916 c -2.75167,0.635 -3.91584,0.79375 -7.99043,1.05833 v 1.5875 l 1.27001,0.10584 c 2.69875,0.21166 3.4925,1.21708 3.4925,4.39208 v 11.05959 c 0,6.35001 4.07458,7.93751 7.88459,7.93751 3.81,0 6.72042,-1.27 11.21834,-4.92126 v 4.44501 z m 25.08254,-23.17752 c 0,-1.74625 -1.5875,-2.96333 -3.86292,-2.96333 -4.39208,0 -6.93209,3.12208 -8.94292,4.70958 v -4.23333 h -1.79917 c -3.28083,0.635 -5.02708,0.84667 -7.99042,1.05833 v 1.5875 l 1.27,0.10584 c 2.69875,0.21166 3.4925,1.21708 3.4925,4.39208 v 12.43543 c 0,2.91042 -0.9525,4.1275 -3.28083,4.39208 l -1.32292,0.10584 v 1.5875 h 14.23459 v -1.5875 l -1.32292,-0.10584 c -2.32833,-0.26458 -3.28083,-1.48166 -3.28083,-4.39208 v -12.96459 c 1.905,-2.11667 3.33375,-2.96334 4.86834,-2.96334 0.89958,0 1.27,0.15875 2.2225,0.79375 0.89958,0.68792 1.74625,0.9525 2.69875,0.9525 1.74625,0 3.01625,-1.21708 3.01625,-2.91042 z m 27.19926,10.53043 c 0,-4.86834 -2.59292,-13.49376 -13.07043,-13.49376 -10.26584,0 -12.80584,8.62542 -12.80584,13.38792 0,7.99042 5.13292,13.22918 13.01751,13.22918 7.67292,0 12.85876,-5.29167 12.85876,-13.12334 z m -5.39751,0.26458 c 0,6.72042 -2.75167,10.74209 -7.40833,10.74209 -4.86834,0 -7.67293,-4.07459 -7.67293,-11.21834 0,-6.77334 2.96334,-11.16542 7.46126,-11.16542 4.7625,0 7.62,4.39208 7.62,11.64167 z m 32.96707,4.28625 c 0,-3.59833 -2.11667,-5.715 -6.72042,-6.82625 l -7.35542,-1.79917 c -1.79917,-0.42333 -4.1275,-1.00542 -4.1275,-3.33375 0,-2.27542 2.2225,-3.96875 5.34458,-3.96875 4.02167,0 7.51417,2.54 9.26043,6.72042 h 1.69333 l -1.69333,-8.14917 h -1.48167 l -0.52917,1.905 c -2.27542,-1.79917 -4.60375,-2.59292 -7.56709,-2.59292 -5.3975,0 -9.68375,3.38667 -9.68375,7.72584 0,3.33375 2.27542,5.29167 7.88459,6.72042 l 6.77333,1.69333 c 2.64584,0.68792 3.86292,1.79917 3.86292,3.4925 0,2.75167 -2.96333,4.86834 -6.82625,4.86834 -3.28084,0 -6.50876,-1.42875 -8.46667,-3.81 -0.9525,-1.11125 -1.48167,-2.16959 -2.22251,-4.18042 h -1.79916 l 1.79916,9.41917 h 1.74626 l 0.58208,-2.2225 c 2.8575,2.16958 5.08,2.91042 8.51959,2.91042 6.35,0 11.00667,-3.65125 11.00667,-8.57251 z"
             id="text2"
             aria-label="Seguros" /></g></g></g></g></svg>
