<?xml version="1.0" encoding="UTF-8" standalone="no"?>
<!-- Created with Inkscape (http://www.inkscape.org/) -->

<svg
   width="983.59399mm"
   height="188.01753mm"
   viewBox="0 0 983.59399 188.01754"
   version="1.1"
   id="svg1"
   xml:space="preserve"
   inkscape:version="1.4 (e7c3feb100, 2024-10-09)"
   sodipodi:docname="home2.svg"
   xmlns:inkscape="http://www.inkscape.org/namespaces/inkscape"
   xmlns:sodipodi="http://sodipodi.sourceforge.net/DTD/sodipodi-0.dtd"
   xmlns="http://www.w3.org/2000/svg"
   xmlns:svg="http://www.w3.org/2000/svg"><sodipodi:namedview
     id="namedview1"
     pagecolor="#ffffff"
     bordercolor="#999999"
     borderopacity="1"
     inkscape:showpageshadow="2"
     inkscape:pageopacity="0"
     inkscape:pagecheckerboard="0"
     inkscape:deskcolor="#d1d1d1"
     inkscape:document-units="mm"
     inkscape:zoom="0.1799523"
     inkscape:cx="1775.4705"
     inkscape:cy="1675.444"
     inkscape:window-width="1920"
     inkscape:window-height="1011"
     inkscape:window-x="0"
     inkscape:window-y="32"
     inkscape:window-maximized="1"
     inkscape:current-layer="text1-3" /><defs
     id="defs1" /><g
     inkscape:label="Layer 1"
     inkscape:groupmode="layer"
     id="layer1"
     transform="translate(44.464303,-86.445714)"><rect
       style="fill:none;fill-opacity:1;fill-rule:evenodd;stroke:none;stroke-width:0.14;stroke-linecap:square;stroke-linejoin:miter;stroke-miterlimit:3.3;stroke-dasharray:none;stroke-opacity:1"
       id="rect30"
       width="211.52666"
       height="211.52667"
       x="9.9366865"
       y="-17.198244" /><g
       id="g3"
       transform="translate(-54.40099,273.01601)"><g
         id="g6"
         transform="translate(0,-216.95841)"><g
           id="g7"><g
             id="text1"
             style="font-size:42.3333px;text-align:center;text-anchor:middle;fill:none;stroke-width:0.206051"
             aria-label="Protegiendo lo que más valoras, &#10;a tu lado en cada paso"
             transform="translate(-4.3578476,-63.873467)"><g
               id="text1-3"
               style="font-size:45.8611px;font-family:'Bookman Old Style';-inkscape-font-specification:'Bookman Old Style';fill:#ffffff;stroke-width:0.264583"
               aria-label="Protegiendo lo que más valoras,&#10;a tu lado en cada paso"><path
                 style="font-family:Montserrat;-inkscape-font-specification:Montserrat"
                 d="m 274.67891,172.94371 v -32.10277 h 12.01561 q 4.08164,0 7.01675,1.32997 2.93511,1.28411 4.49438,3.76061 1.60514,2.43064 1.60514,5.91608 0,3.39373 -1.60514,5.87023 -1.55927,2.43063 -4.49438,3.76061 -2.93511,1.32997 -7.01675,1.32997 h -10.1353 l 1.51341,-1.60514 v 11.74044 z m 3.39372,-11.46527 -1.51341,-1.651 h 10.04358 q 4.81541,0 7.29191,-2.06375 2.52236,-2.10961 2.52236,-5.91609 0,-3.85233 -2.52236,-5.96194 -2.4765,-2.10961 -7.29191,-2.10961 h -10.04358 l 1.51341,-1.60514 z m 27.80887,11.46527 v -24.07708 h 3.11856 v 6.55814 l -0.32103,-1.14653 q 1.00894,-2.75166 3.39372,-4.17336 2.38478,-1.46755 5.91608,-1.46755 v 3.16441 q -0.18344,0 -0.36689,0 -0.18344,-0.0459 -0.36689,-0.0459 -3.80647,0 -5.96194,2.33892 -2.15547,2.29305 -2.15547,6.55814 v 12.29077 z m 27.62065,0.22931 q -3.48544,0 -6.28297,-1.55928 -2.75166,-1.60514 -4.3568,-4.35681 -1.60514,-2.79752 -1.60514,-6.37469 0,-3.62303 1.60514,-6.37469 1.60514,-2.75167 4.3568,-4.31094 2.75167,-1.55928 6.28297,-1.55928 3.57717,0 6.32883,1.55928 2.79753,1.55927 4.35681,4.31094 1.60514,2.75166 1.60514,6.37469 0,3.57717 -1.60514,6.37469 -1.55928,2.75167 -4.35681,4.35681 -2.79752,1.55928 -6.32883,1.55928 z m 0,-2.88925 q 2.61409,0 4.63197,-1.14653 2.01789,-1.19239 3.16442,-3.302 1.19239,-2.15547 1.19239,-4.953 0,-2.84339 -1.19239,-4.953 -1.14653,-2.10961 -3.16442,-3.25614 -2.01788,-1.19238 -4.58611,-1.19238 -2.56822,0 -4.58611,1.19238 -2.01788,1.14653 -3.21027,3.25614 -1.19239,2.10961 -1.19239,4.953 0,2.79753 1.19239,4.953 1.19239,2.10961 3.21027,3.302 2.01789,1.14653 4.54025,1.14653 z m 26.55361,2.88925 q -3.39372,0 -5.22816,-1.83445 -1.83444,-1.83444 -1.83444,-5.1823 v -22.60952 h 3.25613 v 22.42607 q 0,2.10961 1.05481,3.25614 1.10066,1.14653 3.11855,1.14653 2.15547,0 3.57717,-1.23825 l 1.14653,2.33892 q -0.96309,0.87136 -2.33892,1.28411 -1.32997,0.41275 -2.75167,0.41275 z m -11.37355,-21.60058 v -2.70581 h 14.90486 v 2.70581 z m 31.74205,21.60058 q -3.76061,0 -6.60399,-1.55928 -2.84339,-1.60514 -4.44853,-4.35681 -1.60514,-2.79752 -1.60514,-6.37469 0,-3.57716 1.51342,-6.32883 1.55927,-2.75167 4.21922,-4.31094 2.7058,-1.60514 6.05366,-1.60514 3.39372,0 6.00781,1.55928 2.65994,1.51341 4.17336,4.31094 1.51341,2.75166 1.51341,6.37469 0,0.22931 -0.0459,0.50447 0,0.22931 0,0.50448 H 370.2431 v -2.43064 h 19.2158 l -1.28411,0.96308 q 0,-2.61408 -1.14653,-4.63197 -1.10066,-2.06375 -3.02683,-3.21028 -1.92617,-1.14653 -4.44853,-1.14653 -2.4765,0 -4.44852,1.14653 -1.97203,1.14653 -3.0727,3.21028 -1.10066,2.06375 -1.10066,4.72369 v 0.50447 q 0,2.75167 1.19239,4.86128 1.23825,2.06375 3.39372,3.25614 2.20133,1.14653 4.99886,1.14653 2.20133,0 4.08163,-0.77964 1.92617,-0.77964 3.302,-2.38478 l 1.83445,2.10961 q -1.60514,1.92617 -4.03578,2.93511 -2.38478,1.00895 -5.27403,1.00895 z m 27.74597,8.89705 q -3.302,0 -6.32883,-0.96308 -3.02683,-0.96309 -4.90714,-2.75167 l 1.651,-2.4765 q 1.69686,1.51342 4.17336,2.38478 2.52236,0.91722 5.31989,0.91722 4.58611,0 6.74158,-2.15547 2.15547,-2.10961 2.15547,-6.604 v -6.0078 l 0.45861,-4.1275 -0.32103,-4.1275 v -7.29192 h 3.11856 v 21.14197 q 0,6.23711 -3.0727,9.12636 -3.02683,2.93511 -8.98877,2.93511 z m -0.5962,-10.04358 q -3.43958,0 -6.19124,-1.46756 -2.75167,-1.51341 -4.35681,-4.17336 -1.55928,-2.65994 -1.55928,-6.09952 0,-3.43959 1.55928,-6.05367 1.60514,-2.65994 4.35681,-4.1275 2.75166,-1.46755 6.19124,-1.46755 3.21028,0 5.7785,1.32997 2.56823,1.32997 4.08164,3.94405 1.51342,2.61409 1.51342,6.3747 0,3.76061 -1.51342,6.37469 -1.51341,2.61408 -4.08164,3.98992 -2.56822,1.37583 -5.7785,1.37583 z m 0.32103,-2.88925 q 2.65995,0 4.7237,-1.10067 2.06375,-1.14652 3.25613,-3.11855 1.19239,-2.01789 1.19239,-4.63197 0,-2.61409 -1.19239,-4.58611 -1.19238,-1.97203 -3.25613,-3.0727 -2.06375,-1.14652 -4.7237,-1.14652 -2.61408,0 -4.72369,1.14652 -2.06375,1.10067 -3.25614,3.0727 -1.14653,1.97202 -1.14653,4.58611 0,2.61408 1.14653,4.63197 1.19239,1.97203 3.25614,3.11855 2.10961,1.10067 4.72369,1.10067 z m 21.41712,3.80647 v -24.07708 h 3.25613 v 24.07708 z m 1.651,-29.39696 q -1.00895,0 -1.69686,-0.68792 -0.68792,-0.68792 -0.68792,-1.651 0,-0.96308 0.68792,-1.60514 0.68791,-0.68792 1.69686,-0.68792 1.00894,0 1.69686,0.64206 0.68791,0.64206 0.68791,1.60514 0,1.00894 -0.68791,1.69686 -0.64206,0.68792 -1.69686,0.68792 z m 20.91261,29.62627 q -3.76061,0 -6.60399,-1.55928 -2.84339,-1.60514 -4.44853,-4.35681 -1.60514,-2.79752 -1.60514,-6.37469 0,-3.57716 1.51342,-6.32883 1.55928,-2.75167 4.21922,-4.31094 2.7058,-1.60514 6.05366,-1.60514 3.39373,0 6.00781,1.55928 2.65994,1.51341 4.17336,4.31094 1.51341,2.75166 1.51341,6.37469 0,0.22931 -0.0459,0.50447 0,0.22931 0,0.50448 h -20.95852 v -2.43064 h 19.2158 l -1.28411,0.96308 q 0,-2.61408 -1.14653,-4.63197 -1.10066,-2.06375 -3.02683,-3.21028 -1.92617,-1.14653 -4.44853,-1.14653 -2.4765,0 -4.44852,1.14653 -1.97203,1.14653 -3.0727,3.21028 -1.10066,2.06375 -1.10066,4.72369 v 0.50447 q 0,2.75167 1.19239,4.86128 1.23825,2.06375 3.39372,3.25614 2.20133,1.14653 4.99886,1.14653 2.20133,0 4.08163,-0.77964 1.92617,-0.77964 3.302,-2.38478 l 1.83445,2.10961 q -1.60514,1.92617 -4.03578,2.93511 -2.38478,1.00895 -5.27403,1.00895 z m 17.47308,-0.22931 v -24.07708 h 3.11856 v 6.604 l -0.50447,-1.23825 q 1.14652,-2.61408 3.66888,-4.08164 2.52236,-1.51341 6.00781,-1.51341 2.93511,0 5.13644,1.14653 2.2472,1.10066 3.48544,3.39372 1.28412,2.29305 1.28412,5.7785 v 13.98763 h -3.25614 V 159.2771 q 0,-3.80647 -1.92617,-5.73263 -1.8803,-1.97203 -5.31989,-1.97203 -2.56822,0 -4.49438,1.0548 -1.88031,1.00895 -2.93511,2.98097 -1.00895,1.92617 -1.00895,4.67784 v 12.65766 z m 40.58711,0.22931 q -3.43958,0 -6.19125,-1.55928 -2.7058,-1.55928 -4.26508,-4.31094 -1.55928,-2.79753 -1.55928,-6.42056 0,-3.66889 1.55928,-6.42055 1.55928,-2.75167 4.26508,-4.26508 2.75167,-1.55928 6.19125,-1.55928 3.16442,0 5.64091,1.42169 2.52237,1.4217 3.98992,4.17336 1.51342,2.70581 1.51342,6.64986 0,3.89819 -1.46756,6.64986 -1.46755,2.75167 -3.98991,4.21922 -2.4765,1.4217 -5.68678,1.4217 z m 0.2293,-2.88925 q 2.56823,0 4.58611,-1.14653 2.06375,-1.19239 3.21028,-3.302 1.19239,-2.15547 1.19239,-4.953 0,-2.84339 -1.19239,-4.953 -1.14653,-2.10961 -3.21028,-3.25614 -2.01788,-1.19238 -4.58611,-1.19238 -2.52236,0 -4.54024,1.19238 -2.01789,1.14653 -3.21028,3.25614 -1.19239,2.10961 -1.19239,4.953 0,2.79753 1.19239,4.953 1.19239,2.10961 3.21028,3.302 2.01788,1.14653 4.54024,1.14653 z m 9.0805,2.65994 v -7.24605 l 0.32103,-4.86128 -0.45861,-4.86128 v -17.06033 h 3.25614 v 34.02894 z m 22.01332,0.22931 q -3.48545,0 -6.28297,-1.55928 -2.75167,-1.60514 -4.35681,-4.35681 -1.60514,-2.79752 -1.60514,-6.37469 0,-3.62303 1.60514,-6.37469 1.60514,-2.75167 4.35681,-4.31094 2.75166,-1.55928 6.28297,-1.55928 3.57716,0 6.32883,1.55928 2.79752,1.55927 4.3568,4.31094 1.60514,2.75166 1.60514,6.37469 0,3.57717 -1.60514,6.37469 -1.55928,2.75167 -4.3568,4.35681 -2.79753,1.55928 -6.32883,1.55928 z m 0,-2.88925 q 2.61408,0 4.63197,-1.14653 2.01789,-1.19239 3.16441,-3.302 1.19239,-2.15547 1.19239,-4.953 0,-2.84339 -1.19239,-4.953 -1.14652,-2.10961 -3.16441,-3.25614 -2.01789,-1.19238 -4.58611,-1.19238 -2.56822,0 -4.58611,1.19238 -2.01789,1.14653 -3.21028,3.25614 -1.19239,2.10961 -1.19239,4.953 0,2.79753 1.19239,4.953 1.19239,2.10961 3.21028,3.302 2.01789,1.14653 4.54025,1.14653 z m 30.95623,2.65994 v -34.02894 h 3.25614 v 34.02894 z m 22.15085,0.22931 q -3.48544,0 -6.28297,-1.55928 -2.75166,-1.60514 -4.3568,-4.35681 -1.60514,-2.79752 -1.60514,-6.37469 0,-3.62303 1.60514,-6.37469 1.60514,-2.75167 4.3568,-4.31094 2.75167,-1.55928 6.28297,-1.55928 3.57717,0 6.32883,1.55928 2.79753,1.55927 4.35681,4.31094 1.60514,2.75166 1.60514,6.37469 0,3.57717 -1.60514,6.37469 -1.55928,2.75167 -4.35681,4.35681 -2.79752,1.55928 -6.32883,1.55928 z m 0,-2.88925 q 2.61408,0 4.63197,-1.14653 2.01789,-1.19239 3.16442,-3.302 1.19239,-2.15547 1.19239,-4.953 0,-2.84339 -1.19239,-4.953 -1.14653,-2.10961 -3.16442,-3.25614 -2.01789,-1.19238 -4.58611,-1.19238 -2.56822,0 -4.58611,1.19238 -2.01788,1.14653 -3.21027,3.25614 -1.19239,2.10961 -1.19239,4.953 0,2.79753 1.19239,4.953 1.19239,2.10961 3.21027,3.302 2.01789,1.14653 4.54025,1.14653 z m 40.5412,2.88925 q -3.43958,0 -6.19124,-1.55928 -2.70581,-1.55928 -4.26509,-4.31094 -1.55927,-2.75167 -1.55927,-6.42056 0,-3.62303 1.55927,-6.37469 1.55928,-2.79753 4.26509,-4.31094 2.75166,-1.55928 6.19124,-1.55928 3.21028,0 5.68678,1.42169 2.52236,1.4217 3.98992,4.17336 1.46755,2.70581 1.46755,6.64986 0,3.94406 -1.51341,6.69572 -1.46756,2.70581 -3.98992,4.17336 -2.4765,1.4217 -5.64092,1.4217 z m 0.22931,-2.88925 q 2.56822,0 4.58611,-1.14653 2.06375,-1.19239 3.21028,-3.302 1.19239,-2.15547 1.19239,-4.953 0,-2.79753 -1.19239,-4.90714 -1.14653,-2.10961 -3.21028,-3.302 -2.01789,-1.19238 -4.58611,-1.19238 -2.52236,0 -4.54025,1.19238 -2.01789,1.19239 -3.21028,3.302 -1.19238,2.10961 -1.19238,4.90714 0,2.79753 1.19238,4.953 1.19239,2.10961 3.21028,3.302 2.01789,1.14653 4.54025,1.14653 z m 8.94291,11.55699 v -16.05138 l 0.45862,-4.86128 -0.32103,-4.81541 v -7.24606 h 3.11855 v 32.97413 z m 22.28848,-8.66774 q -3.07269,0 -5.36574,-1.14653 -2.29306,-1.14653 -3.57717,-3.43958 -1.23825,-2.29306 -1.23825,-5.73264 v -13.98764 h 3.25614 v 13.62075 q 0,3.85233 1.8803,5.82436 1.92617,1.92617 5.36575,1.92617 2.52236,0 4.35681,-1.00895 1.8803,-1.0548 2.84338,-3.02683 1.00895,-1.97203 1.00895,-4.72369 v -12.61181 h 3.25614 v 24.07708 h -3.11856 v -6.604 l 0.50447,1.19239 q -1.14652,2.65994 -3.57716,4.17336 -2.38478,1.46756 -5.59506,1.46756 z m 31.09387,0 q -3.76061,0 -6.604,-1.55928 -2.84339,-1.60514 -4.44853,-4.35681 -1.60514,-2.79752 -1.60514,-6.37469 0,-3.57716 1.51342,-6.32883 1.55928,-2.75167 4.21922,-4.31094 2.7058,-1.60514 6.05367,-1.60514 3.39372,0 6.0078,1.55928 2.65994,1.51341 4.17336,4.31094 1.51342,2.75166 1.51342,6.37469 0,0.22931 -0.0459,0.50447 0,0.22931 0,0.50448 h -20.95852 v -2.43064 h 19.2158 l -1.28411,0.96308 q 0,-2.61408 -1.14653,-4.63197 -1.10066,-2.06375 -3.02683,-3.21028 -1.92616,-1.14653 -4.44852,-1.14653 -2.4765,0 -4.44853,1.14653 -1.97203,1.14653 -3.0727,3.21028 -1.10066,2.06375 -1.10066,4.72369 v 0.50447 q 0,2.75167 1.19239,4.86128 1.23825,2.06375 3.39372,3.25614 2.20133,1.14653 4.99886,1.14653 2.20133,0 4.08164,-0.77964 1.92616,-0.77964 3.302,-2.38478 l 1.83444,2.10961 q -1.60514,1.92617 -4.03578,2.93511 -2.38477,1.00895 -5.27402,1.00895 z m 29.48867,-0.22931 v -24.07708 h 3.11855 v 6.51228 l -0.50447,-1.14653 q 1.10067,-2.61408 3.53131,-4.08164 2.4765,-1.51341 5.82436,-1.51341 3.5313,0 6.0078,1.78858 2.4765,1.74272 3.21028,5.27403 l -1.28411,-0.50448 q 1.0548,-2.93511 3.71475,-4.72369 2.7058,-1.83444 6.46641,-1.83444 2.93511,0 5.09058,1.14653 2.20133,1.10066 3.39372,3.39372 1.23825,2.29305 1.23825,5.7785 v 13.98763 h -3.25613 V 159.2771 q 0,-3.80647 -1.83445,-5.73263 -1.78858,-1.97203 -5.09058,-1.97203 -2.4765,0 -4.31094,1.0548 -1.78859,1.00895 -2.79753,2.98097 -0.96308,1.92617 -0.96308,4.67784 v 12.65766 H 745.2492 V 159.2771 q 0,-3.80647 -1.83445,-5.73263 -1.83444,-1.97203 -5.13644,-1.97203 -2.43064,0 -4.26508,1.0548 -1.83445,1.00895 -2.84339,2.98097 -0.96308,1.92617 -0.96308,4.67784 v 12.65766 z m 63.74696,0 v -5.31989 L 790.56,166.75246 v -8.89705 q 0,-3.07269 -1.74272,-4.72369 -1.69686,-1.651 -5.09059,-1.651 -2.33891,0 -4.44852,0.77963 -2.10961,0.77964 -3.57717,2.06375 l -1.46755,-2.43063 q 1.83444,-1.55928 4.40266,-2.38478 2.56822,-0.87136 5.41161,-0.87136 4.67783,0 7.20019,2.33891 2.56823,2.29306 2.56823,7.01675 v 14.95072 z m -8.30086,0.22931 q -2.7058,0 -4.72369,-0.87137 -1.97203,-0.91722 -3.02683,-2.47649 -1.05481,-1.60514 -1.05481,-3.66889 0,-1.88031 0.87136,-3.39372 0.91722,-1.55928 2.93511,-2.4765 2.06375,-0.96309 5.50333,-0.96309 h 8.30086 v 2.43064 h -8.20913 q -3.48545,0 -4.86128,1.23825 -1.32997,1.23825 -1.32997,3.0727 0,2.06374 1.60514,3.30199 1.60514,1.23825 4.49438,1.23825 2.75167,0 4.7237,-1.23825 2.01789,-1.28411 2.93511,-3.66888 l 0.73378,2.24719 q -0.91723,2.38478 -3.21028,3.80647 -2.24719,1.4217 -5.68678,1.4217 z m -1.23825,-28.067 6.28297,-5.68677 h 4.35681 l -7.4295,5.68677 z m 27.97527,28.067 q -2.98097,0 -5.64092,-0.8255 -2.65994,-0.87136 -4.17336,-2.15548 l 1.46756,-2.56822 q 1.46755,1.10067 3.76061,1.92617 2.29305,0.77964 4.81541,0.77964 3.43959,0 4.953,-1.05481 1.51342,-1.10066 1.51342,-2.88925 0,-1.32997 -0.87136,-2.06375 -0.8255,-0.77964 -2.20133,-1.14652 -1.37584,-0.41275 -3.0727,-0.68792 -1.69686,-0.27517 -3.39372,-0.64206 -1.651,-0.36688 -3.02683,-1.0548 -1.37583,-0.73378 -2.2472,-1.97203 -0.82549,-1.23825 -0.82549,-3.302 0,-1.97202 1.10066,-3.5313 1.10067,-1.55928 3.21028,-2.43064 2.15547,-0.91722 5.22816,-0.91722 2.33892,0 4.67784,0.64205 2.33891,0.5962 3.85233,1.60514 l -1.4217,2.61408 q -1.60513,-1.10066 -3.43958,-1.55927 -1.83444,-0.50448 -3.66889,-0.50448 -3.25613,0 -4.81541,1.14653 -1.51342,1.10067 -1.51342,2.84339 0,1.37583 0.8255,2.15547 0.87136,0.77964 2.2472,1.23825 1.42169,0.41275 3.07269,0.68792 1.69686,0.27516 3.34786,0.68791 1.69686,0.36689 3.07269,1.05481 1.4217,0.64206 2.2472,1.88031 0.87136,1.19238 0.87136,3.16441 0,2.10961 -1.19239,3.66889 -1.14653,1.51342 -3.39372,2.38478 -2.20133,0.8255 -5.36575,0.8255 z m 34.12065,-0.22931 -10.68564,-24.07708 h 3.39372 l 9.81428,22.33436 h -1.60514 l 9.95186,-22.33436 h 3.21027 l -10.73149,24.07708 z m 32.8578,0 v -5.31989 l -0.13758,-0.87136 v -8.89705 q 0,-3.07269 -1.74272,-4.72369 -1.69686,-1.651 -5.09058,-1.651 -2.33892,0 -4.44853,0.77963 -2.10961,0.77964 -3.57717,2.06375 l -1.46755,-2.43063 q 1.83444,-1.55928 4.40266,-2.38478 2.56823,-0.87136 5.41161,-0.87136 4.67784,0 7.2002,2.33891 2.56822,2.29306 2.56822,7.01675 v 14.95072 z m -8.30086,0.22931 q -2.7058,0 -4.72369,-0.87137 -1.97203,-0.91722 -3.02683,-2.47649 -1.05481,-1.60514 -1.05481,-3.66889 0,-1.88031 0.87136,-3.39372 0.91723,-1.55928 2.93511,-2.4765 2.06375,-0.96309 5.50334,-0.96309 h 8.30086 v 2.43064 h -8.20914 q -3.48544,0 -4.86128,1.23825 -1.32997,1.23825 -1.32997,3.0727 0,2.06374 1.60514,3.30199 1.60514,1.23825 4.49439,1.23825 2.75166,0 4.72369,-1.23825 2.01789,-1.28411 2.93511,-3.66888 l 0.73378,2.24719 q -0.91722,2.38478 -3.21028,3.80647 -2.24719,1.4217 -5.68678,1.4217 z m 20.27061,-0.22931 v -34.02894 h 3.25613 v 34.02894 z m 22.15088,0.22931 q -3.48544,0 -6.28297,-1.55928 -2.75167,-1.60514 -4.3568,-4.35681 -1.60514,-2.79752 -1.60514,-6.37469 0,-3.62303 1.60514,-6.37469 1.60513,-2.75167 4.3568,-4.31094 2.75167,-1.55928 6.28297,-1.55928 3.57717,0 6.32883,1.55928 2.79753,1.55927 4.35681,4.31094 1.60513,2.75166 1.60513,6.37469 0,3.57717 -1.60513,6.37469 -1.55928,2.75167 -4.35681,4.35681 -2.79752,1.55928 -6.32883,1.55928 z m 0,-2.88925 q 2.61408,0 4.63197,-1.14653 2.01789,-1.19239 3.16442,-3.302 1.19239,-2.15547 1.19239,-4.953 0,-2.84339 -1.19239,-4.953 -1.14653,-2.10961 -3.16442,-3.25614 -2.01789,-1.19238 -4.58611,-1.19238 -2.56822,0 -4.58611,1.19238 -2.01789,1.14653 -3.21028,3.25614 -1.19238,2.10961 -1.19238,4.953 0,2.79753 1.19238,4.953 1.19239,2.10961 3.21028,3.302 2.01789,1.14653 4.54025,1.14653 z m 18.94067,2.65994 v -24.07708 h 3.11855 v 6.55814 l -0.32102,-1.14653 q 1.00894,-2.75166 3.39372,-4.17336 2.38477,-1.46755 5.91608,-1.46755 v 3.16441 q -0.18345,0 -0.36689,0 -0.18344,-0.0459 -0.36689,-0.0459 -3.80647,0 -5.96194,2.33892 -2.15547,2.29305 -2.15547,6.55814 v 12.29077 z m 31.61333,0 v -5.31989 l -0.13759,-0.87136 v -8.89705 q 0,-3.07269 -1.74272,-4.72369 -1.69686,-1.651 -5.09058,-1.651 -2.33892,0 -4.44853,0.77963 -2.10961,0.77964 -3.57716,2.06375 l -1.46756,-2.43063 q 1.83444,-1.55928 4.40267,-2.38478 2.56822,-0.87136 5.41161,-0.87136 4.67783,0 7.20019,2.33891 2.56822,2.29306 2.56822,7.01675 v 14.95072 z m -8.30086,0.22931 q -2.70581,0 -4.7237,-0.87137 -1.97202,-0.91722 -3.02683,-2.47649 -1.0548,-1.60514 -1.0548,-3.66889 0,-1.88031 0.87136,-3.39372 0.91722,-1.55928 2.93511,-2.4765 2.06375,-0.96309 5.50333,-0.96309 h 8.30086 v 2.43064 h -8.20914 q -3.48544,0 -4.86128,1.23825 -1.32997,1.23825 -1.32997,3.0727 0,2.06374 1.60514,3.30199 1.60514,1.23825 4.49439,1.23825 2.75166,0 4.72369,-1.23825 2.01789,-1.28411 2.93511,-3.66888 l 0.73378,2.24719 q -0.91722,2.38478 -3.21028,3.80647 -2.24719,1.4217 -5.68677,1.4217 z m 26.73707,0 q -2.98097,0 -5.64091,-0.8255 -2.65995,-0.87136 -4.17336,-2.15548 l 1.46755,-2.56822 q 1.46756,1.10067 3.76061,1.92617 2.29306,0.77964 4.81542,0.77964 3.43958,0 4.953,-1.05481 1.51341,-1.10066 1.51341,-2.88925 0,-1.32997 -0.87136,-2.06375 -0.8255,-0.77964 -2.20133,-1.14652 -1.37583,-0.41275 -3.07269,-0.68792 -1.69686,-0.27517 -3.39372,-0.64206 -1.651,-0.36688 -3.02684,-1.0548 -1.37583,-0.73378 -2.24719,-1.97203 -0.8255,-1.23825 -0.8255,-3.302 0,-1.97202 1.10067,-3.5313 1.10066,-1.55928 3.21027,-2.43064 2.15547,-0.91722 5.22817,-0.91722 2.33891,0 4.67783,0.64205 2.33892,0.5962 3.85233,1.60514 l -1.42169,2.61408 q -1.60514,-1.10066 -3.43958,-1.55927 -1.83445,-0.50448 -3.66889,-0.50448 -3.25614,0 -4.81542,1.14653 -1.51341,1.10067 -1.51341,2.84339 0,1.37583 0.8255,2.15547 0.87136,0.77964 2.24719,1.23825 1.42169,0.41275 3.07269,0.68792 1.69686,0.27516 3.34786,0.68791 1.69686,0.36689 3.0727,1.05481 1.42169,0.64206 2.24719,1.88031 0.87136,1.19238 0.87136,3.16441 0,2.10961 -1.19239,3.66889 -1.14652,1.51342 -3.39372,2.38478 -2.20133,0.8255 -5.36575,0.8255 z m 13.94181,6.46641 2.01789,-8.4843 0.36689,1.97202 q -1.05481,0 -1.78859,-0.68791 -0.68791,-0.68792 -0.68791,-1.78858 0,-1.10067 0.68791,-1.78859 0.73378,-0.68791 1.74273,-0.68791 1.0548,0 1.69686,0.73377 0.68791,0.73378 0.68791,1.74273 0,0.36688 -0.0459,0.73377 -0.0459,0.36689 -0.18344,0.8255 -0.13758,0.45861 -0.36689,1.10067 l -1.92617,6.32883 z"
                 id="path7" /><path
                 style="font-family:Montserrat;-inkscape-font-specification:Montserrat"
                 d="m 397.17322,231.28332 v -5.31989 l -0.13758,-0.87136 v -8.89705 q 0,-3.0727 -1.74272,-4.7237 -1.69686,-1.651 -5.09058,-1.651 -2.33892,0 -4.44853,0.77964 -2.10961,0.77964 -3.57717,2.06375 l -1.46755,-2.43064 q 1.83444,-1.55927 4.40266,-2.38477 2.56823,-0.87137 5.41161,-0.87137 4.67784,0 7.2002,2.33892 2.56822,2.29306 2.56822,7.01675 v 14.95072 z m -8.30086,0.2293 q -2.7058,0 -4.72369,-0.87136 -1.97203,-0.91722 -3.02683,-2.4765 -1.05481,-1.60514 -1.05481,-3.66889 0,-1.8803 0.87136,-3.39372 0.91723,-1.55927 2.93511,-2.4765 2.06375,-0.96308 5.50334,-0.96308 h 8.30085 v 2.43064 h -8.20913 q -3.48545,0 -4.86128,1.23825 -1.32997,1.23825 -1.32997,3.07269 0,2.06375 1.60514,3.302 1.60514,1.23825 4.49439,1.23825 2.75166,0 4.72369,-1.23825 2.01789,-1.28411 2.93511,-3.66889 l 0.73378,2.2472 q -0.91722,2.38477 -3.21028,3.80647 -2.24719,1.42169 -5.68678,1.42169 z m 39.89913,0 q -3.39372,0 -5.22817,-1.83444 -1.83444,-1.83444 -1.83444,-5.18231 v -22.60952 h 3.25614 v 22.42608 q 0,2.10961 1.0548,3.25614 1.10067,1.14653 3.11856,1.14653 2.15547,0 3.57716,-1.23825 l 1.14653,2.33891 q -0.96308,0.87136 -2.33892,1.28411 -1.32997,0.41275 -2.75166,0.41275 z m -11.37356,-21.60057 v -2.70581 h 14.90486 v 2.70581 z m 32.33209,21.60057 q -3.0727,0 -5.36575,-1.14652 -2.29306,-1.14653 -3.57717,-3.43959 -1.23825,-2.29305 -1.23825,-5.73263 v -13.98764 h 3.25614 v 13.62075 q 0,3.85233 1.88031,5.82436 1.92616,1.92616 5.36574,1.92616 2.52237,0 4.35681,-1.00894 1.8803,-1.05481 2.84339,-3.02683 1.00894,-1.97203 1.00894,-4.7237 v -12.6118 h 3.25614 v 24.07708 h -3.11856 v -6.604 l 0.50448,1.19239 q -1.14653,2.65994 -3.57717,4.17336 -2.38478,1.46755 -5.59505,1.46755 z m 32.88241,-0.2293 v -34.02894 h 3.25613 v 34.02894 z m 27.42489,0 v -5.31989 l -0.13758,-0.87136 v -8.89705 q 0,-3.0727 -1.74272,-4.7237 -1.69687,-1.651 -5.09059,-1.651 -2.33891,0 -4.44852,0.77964 -2.10961,0.77964 -3.57717,2.06375 l -1.46755,-2.43064 q 1.83444,-1.55927 4.40266,-2.38477 2.56822,-0.87137 5.41161,-0.87137 4.67783,0 7.20019,2.33892 2.56823,2.29306 2.56823,7.01675 v 14.95072 z m -8.30086,0.2293 q -2.7058,0 -4.72369,-0.87136 -1.97203,-0.91722 -3.02683,-2.4765 -1.05481,-1.60514 -1.05481,-3.66889 0,-1.8803 0.87136,-3.39372 0.91722,-1.55927 2.93511,-2.4765 2.06375,-0.96308 5.50333,-0.96308 h 8.30086 v 2.43064 h -8.20913 q -3.48545,0 -4.86128,1.23825 -1.32997,1.23825 -1.32997,3.07269 0,2.06375 1.60514,3.302 1.60513,1.23825 4.49438,1.23825 2.75167,0 4.7237,-1.23825 2.01789,-1.28411 2.93511,-3.66889 l 0.73377,2.2472 q -0.91722,2.38477 -3.21027,3.80647 -2.2472,1.42169 -5.68678,1.42169 z m 29.85558,0 q -3.43958,0 -6.19125,-1.55927 -2.7058,-1.55928 -4.26508,-4.31095 -1.55928,-2.79752 -1.55928,-6.42055 0,-3.66889 1.55928,-6.42056 1.55928,-2.75166 4.26508,-4.26508 2.75167,-1.55928 6.19125,-1.55928 3.16442,0 5.64092,1.4217 2.52236,1.42169 3.98991,4.17336 1.51342,2.7058 1.51342,6.64986 0,3.89819 -1.46756,6.64986 -1.46755,2.75166 -3.98991,4.21922 -2.4765,1.42169 -5.68678,1.42169 z m 0.22931,-2.88925 q 2.56822,0 4.58611,-1.14652 2.06375,-1.19239 3.21027,-3.302 1.19239,-2.15547 1.19239,-4.953 0,-2.84339 -1.19239,-4.953 -1.14652,-2.10961 -3.21027,-3.25614 -2.01789,-1.19239 -4.58611,-1.19239 -2.52236,0 -4.54025,1.19239 -2.01789,1.14653 -3.21028,3.25614 -1.19239,2.10961 -1.19239,4.953 0,2.79753 1.19239,4.953 1.19239,2.10961 3.21028,3.302 2.01789,1.14652 4.54025,1.14652 z m 9.08049,2.65995 v -7.24606 l 0.32103,-4.86127 -0.45861,-4.86128 v -17.06033 h 3.25614 v 34.02894 z m 22.01332,0.2293 q -3.48545,0 -6.28297,-1.55927 -2.75167,-1.60514 -4.35681,-4.35681 -1.60514,-2.79753 -1.60514,-6.37469 0,-3.62303 1.60514,-6.37469 1.60514,-2.75167 4.35681,-4.31095 2.75166,-1.55928 6.28297,-1.55928 3.57716,0 6.32883,1.55928 2.79753,1.55928 4.3568,4.31095 1.60514,2.75166 1.60514,6.37469 0,3.57716 -1.60514,6.37469 -1.55927,2.75167 -4.3568,4.35681 -2.79753,1.55927 -6.32883,1.55927 z m 0,-2.88925 q 2.61408,0 4.63197,-1.14652 2.01789,-1.19239 3.16441,-3.302 1.19239,-2.15547 1.19239,-4.953 0,-2.84339 -1.19239,-4.953 -1.14652,-2.10961 -3.16441,-3.25614 -2.01789,-1.19239 -4.58611,-1.19239 -2.56822,0 -4.58611,1.19239 -2.01789,1.14653 -3.21028,3.25614 -1.19239,2.10961 -1.19239,4.953 0,2.79753 1.19239,4.953 1.19239,2.10961 3.21028,3.302 2.01789,1.14652 4.54025,1.14652 z m 41.18325,2.88925 q -3.76061,0 -6.60399,-1.55927 -2.84339,-1.60514 -4.44853,-4.35681 -1.60514,-2.79753 -1.60514,-6.37469 0,-3.57717 1.51342,-6.32883 1.55927,-2.75167 4.21922,-4.31095 2.7058,-1.60514 6.05366,-1.60514 3.39373,0 6.00781,1.55928 2.65994,1.51342 4.17336,4.31095 1.51341,2.75166 1.51341,6.37469 0,0.2293 -0.0459,0.50447 0,0.22931 0,0.50447 h -20.95852 v -2.43064 h 19.2158 l -1.28411,0.96309 q 0,-2.61409 -1.14653,-4.63197 -1.10066,-2.06375 -3.02683,-3.21028 -1.92617,-1.14653 -4.44853,-1.14653 -2.4765,0 -4.44852,1.14653 -1.97203,1.14653 -3.0727,3.21028 -1.10066,2.06375 -1.10066,4.72369 v 0.50447 q 0,2.75167 1.19239,4.86128 1.23825,2.06375 3.39372,3.25614 2.20133,1.14652 4.99886,1.14652 2.20133,0 4.08163,-0.77963 1.92617,-0.77964 3.302,-2.38478 l 1.83445,2.10961 q -1.60514,1.92616 -4.03578,2.93511 -2.38478,1.00894 -5.27403,1.00894 z m 17.47308,-0.2293 v -24.07708 h 3.11856 v 6.604 l -0.50447,-1.23825 q 1.14652,-2.61408 3.66888,-4.08164 2.52236,-1.51342 6.00781,-1.51342 2.93511,0 5.13644,1.14653 2.24719,1.10067 3.48544,3.39372 1.28412,2.29306 1.28412,5.7785 v 13.98764 h -3.25614 v -13.66661 q 0,-3.80647 -1.92617,-5.73264 -1.8803,-1.97202 -5.31989,-1.97202 -2.56822,0 -4.49438,1.0548 -1.88031,1.00894 -2.93511,2.98097 -1.00895,1.92617 -1.00895,4.67783 v 12.65767 z m 53.01542,0.2293 q -3.57716,0 -6.42055,-1.55927 -2.79753,-1.60514 -4.40267,-4.35681 -1.60513,-2.79753 -1.60513,-6.37469 0,-3.62303 1.60513,-6.37469 1.60514,-2.75167 4.40267,-4.31095 2.84339,-1.55928 6.42055,-1.55928 3.0727,0 5.5492,1.19239 2.4765,1.19239 3.89819,3.57717 l -2.43064,1.651 q -1.23825,-1.83445 -3.07269,-2.70581 -1.83445,-0.87136 -3.98992,-0.87136 -2.56822,0 -4.63197,1.19239 -2.06375,1.14653 -3.25614,3.25614 -1.19239,2.10961 -1.19239,4.953 0,2.84339 1.19239,4.953 1.19239,2.10961 3.25614,3.302 2.06375,1.14652 4.63197,1.14652 2.15547,0 3.98992,-0.87136 1.83444,-0.87136 3.07269,-2.65994 l 2.43064,1.651 q -1.42169,2.33891 -3.89819,3.57716 -2.4765,1.19239 -5.5492,1.19239 z m 30.91038,-0.2293 v -5.31989 l -0.13758,-0.87136 v -8.89705 q 0,-3.0727 -1.74273,-4.7237 -1.69686,-1.651 -5.09058,-1.651 -2.33891,0 -4.44852,0.77964 -2.10962,0.77964 -3.57717,2.06375 l -1.46756,-2.43064 q 1.83445,-1.55927 4.40267,-2.38477 2.56822,-0.87137 5.41161,-0.87137 4.67783,0 7.20019,2.33892 2.56822,2.29306 2.56822,7.01675 v 14.95072 z m -8.30086,0.2293 q -2.7058,0 -4.72369,-0.87136 -1.97203,-0.91722 -3.02684,-2.4765 -1.0548,-1.60514 -1.0548,-3.66889 0,-1.8803 0.87136,-3.39372 0.91722,-1.55927 2.93511,-2.4765 2.06375,-0.96308 5.50333,-0.96308 h 8.30086 v 2.43064 h -8.20914 q -3.48544,0 -4.86127,1.23825 -1.32997,1.23825 -1.32997,3.07269 0,2.06375 1.60513,3.302 1.60514,1.23825 4.49439,1.23825 2.75167,0 4.7237,-1.23825 2.01788,-1.28411 2.93511,-3.66889 l 0.73377,2.2472 q -0.91722,2.38477 -3.21027,3.80647 -2.2472,1.42169 -5.68678,1.42169 z m 29.85557,0 q -3.43958,0 -6.19125,-1.55927 -2.7058,-1.55928 -4.26508,-4.31095 -1.55928,-2.79752 -1.55928,-6.42055 0,-3.66889 1.55928,-6.42056 1.55928,-2.75166 4.26508,-4.26508 2.75167,-1.55928 6.19125,-1.55928 3.16442,0 5.64092,1.4217 2.52236,1.42169 3.98991,4.17336 1.51342,2.7058 1.51342,6.64986 0,3.89819 -1.46756,6.64986 -1.46755,2.75166 -3.98991,4.21922 -2.4765,1.42169 -5.68678,1.42169 z m 0.22931,-2.88925 q 2.56822,0 4.58611,-1.14652 2.06375,-1.19239 3.21027,-3.302 1.19239,-2.15547 1.19239,-4.953 0,-2.84339 -1.19239,-4.953 -1.14652,-2.10961 -3.21027,-3.25614 -2.01789,-1.19239 -4.58611,-1.19239 -2.52236,0 -4.54025,1.19239 -2.01789,1.14653 -3.21028,3.25614 -1.19239,2.10961 -1.19239,4.953 0,2.79753 1.19239,4.953 1.19239,2.10961 3.21028,3.302 2.01789,1.14652 4.54025,1.14652 z m 9.08049,2.65995 v -7.24606 l 0.32103,-4.86127 -0.45861,-4.86128 v -17.06033 h 3.25614 v 34.02894 z m 27.28734,0 v -5.31989 l -0.13758,-0.87136 v -8.89705 q 0,-3.0727 -1.74272,-4.7237 -1.69686,-1.651 -5.09058,-1.651 -2.33892,0 -4.44853,0.77964 -2.10961,0.77964 -3.57717,2.06375 l -1.46755,-2.43064 q 1.83444,-1.55927 4.40267,-2.38477 2.56822,-0.87137 5.4116,-0.87137 4.67784,0 7.2002,2.33892 2.56822,2.29306 2.56822,7.01675 v 14.95072 z m -8.30085,0.2293 q -2.70581,0 -4.7237,-0.87136 -1.97203,-0.91722 -3.02683,-2.4765 -1.05481,-1.60514 -1.05481,-3.66889 0,-1.8803 0.87137,-3.39372 0.91722,-1.55927 2.93511,-2.4765 2.06375,-0.96308 5.50333,-0.96308 h 8.30086 v 2.43064 h -8.20914 q -3.48544,0 -4.86128,1.23825 -1.32997,1.23825 -1.32997,3.07269 0,2.06375 1.60514,3.302 1.60514,1.23825 4.49439,1.23825 2.75166,0 4.72369,-1.23825 2.01789,-1.28411 2.93511,-3.66889 l 0.73378,2.2472 q -0.91722,2.38477 -3.21028,3.80647 -2.24719,1.42169 -5.68677,1.42169 z m 44.71452,0 q -3.11856,0 -5.64092,-1.42169 -2.52236,-1.46756 -4.03577,-4.17336 -1.46756,-2.75167 -1.46756,-6.69572 0,-3.94406 1.46756,-6.64986 1.46755,-2.75167 3.98991,-4.17336 2.52236,-1.4217 5.68678,-1.4217 3.43958,0 6.14539,1.55928 2.75166,1.51342 4.31094,4.31095 1.55928,2.75166 1.55928,6.37469 0,3.66889 -1.55928,6.42055 -1.55928,2.75167 -4.31094,4.31095 -2.70581,1.55927 -6.14539,1.55927 z m -12.42836,8.66775 v -32.97413 h 3.11856 v 7.24605 l -0.32103,4.81542 0.45861,4.86128 v 16.05138 z m 12.19905,-11.557 q 2.56823,0 4.58611,-1.14652 2.01789,-1.19239 3.21028,-3.302 1.19239,-2.15547 1.19239,-4.953 0,-2.79753 -1.19239,-4.90714 -1.19239,-2.10961 -3.21028,-3.302 -2.01788,-1.19239 -4.58611,-1.19239 -2.56822,0 -4.63197,1.19239 -2.01789,1.19239 -3.21027,3.302 -1.14653,2.10961 -1.14653,4.90714 0,2.79753 1.14653,4.953 1.19238,2.10961 3.21027,3.302 2.06375,1.14652 4.63197,1.14652 z m 33.82703,2.65995 v -5.31989 l -0.13759,-0.87136 v -8.89705 q 0,-3.0727 -1.74272,-4.7237 -1.69686,-1.651 -5.09058,-1.651 -2.33892,0 -4.44853,0.77964 -2.10961,0.77964 -3.57716,2.06375 l -1.46756,-2.43064 q 1.83445,-1.55927 4.40267,-2.38477 2.56822,-0.87137 5.41161,-0.87137 4.67783,0 7.20019,2.33892 2.56822,2.29306 2.56822,7.01675 v 14.95072 z m -8.30086,0.2293 q -2.70581,0 -4.72369,-0.87136 -1.97203,-0.91722 -3.02684,-2.4765 -1.0548,-1.60514 -1.0548,-3.66889 0,-1.8803 0.87136,-3.39372 0.91722,-1.55927 2.93511,-2.4765 2.06375,-0.96308 5.50333,-0.96308 h 8.30086 v 2.43064 h -8.20914 q -3.48544,0 -4.86127,1.23825 -1.32998,1.23825 -1.32998,3.07269 0,2.06375 1.60514,3.302 1.60514,1.23825 4.49439,1.23825 2.75167,0 4.72369,-1.23825 2.01789,-1.28411 2.93511,-3.66889 l 0.73378,2.2472 q -0.91722,2.38477 -3.21028,3.80647 -2.24719,1.42169 -5.68677,1.42169 z m 26.73702,0 q -2.98098,0 -5.64092,-0.8255 -2.65994,-0.87136 -4.17336,-2.15547 l 1.46756,-2.56822 q 1.46755,1.10067 3.76061,1.92617 2.29305,0.77963 4.81541,0.77963 3.43958,0 4.953,-1.0548 1.51342,-1.10067 1.51342,-2.88925 0,-1.32997 -0.87137,-2.06375 -0.82549,-0.77964 -2.20133,-1.14653 -1.37583,-0.41275 -3.07269,-0.68791 -1.69686,-0.27517 -3.39372,-0.64206 -1.651,-0.36689 -3.02684,-1.0548 -1.37583,-0.73378 -2.24719,-1.97203 -0.8255,-1.23825 -0.8255,-3.302 0,-1.97203 1.10067,-3.5313 1.10066,-1.55928 3.21027,-2.43064 2.15548,-0.91723 5.22817,-0.91723 2.33892,0 4.67783,0.64206 2.33892,0.59619 3.85233,1.60514 l -1.42169,2.61408 q -1.60514,-1.10066 -3.43958,-1.55928 -1.83445,-0.50447 -3.66889,-0.50447 -3.25614,0 -4.81542,1.14653 -1.51341,1.10067 -1.51341,2.84339 0,1.37583 0.8255,2.15547 0.87136,0.77964 2.24719,1.23825 1.4217,0.41275 3.0727,0.68792 1.69686,0.27516 3.34786,0.68791 1.69686,0.36689 3.07269,1.05481 1.42169,0.64205 2.24719,1.8803 0.87136,1.19239 0.87136,3.16442 0,2.10961 -1.19238,3.66889 -1.14653,1.51341 -3.39373,2.38477 -2.20133,0.8255 -5.36574,0.8255 z m 25.7281,0 q -3.48544,0 -6.28297,-1.55927 -2.75166,-1.60514 -4.3568,-4.35681 -1.60514,-2.79753 -1.60514,-6.37469 0,-3.62303 1.60514,-6.37469 1.60514,-2.75167 4.3568,-4.31095 2.75167,-1.55928 6.28297,-1.55928 3.57717,0 6.32884,1.55928 2.79752,1.55928 4.3568,4.31095 1.60514,2.75166 1.60514,6.37469 0,3.57716 -1.60514,6.37469 -1.55928,2.75167 -4.3568,4.35681 -2.79753,1.55927 -6.32884,1.55927 z m 0,-2.88925 q 2.61409,0 4.63198,-1.14652 2.01788,-1.19239 3.16441,-3.302 1.19239,-2.15547 1.19239,-4.953 0,-2.84339 -1.19239,-4.953 -1.14653,-2.10961 -3.16441,-3.25614 -2.01789,-1.19239 -4.58611,-1.19239 -2.56823,0 -4.58611,1.19239 -2.01789,1.14653 -3.21028,3.25614 -1.19239,2.10961 -1.19239,4.953 0,2.79753 1.19239,4.953 1.19239,2.10961 3.21028,3.302 2.01788,1.14652 4.54024,1.14652 z"
                 id="path8" /></g></g><g
             id="g1"
             transform="translate(-22.054456,-20.584159)"><path
               d="m 158.93572,167.32622 v -5.29539 c -8.37013,-1.53737 -12.98224,-4.27048 -18.27763,-11.10324 l -28.35596,-40.14246 c 28.18514,-4.09966 31.60152,-21.864833 31.60152,-30.405783 0,-18.277633 -14.86125,-29.380869 -39.45919,-29.380869 H 34.921127 v 5.295389 l 4.270475,0.512457 c 8.882588,1.195733 11.103235,4.782933 11.103235,18.790091 v 67.131865 c 0,14.00716 -2.220647,17.59436 -11.103235,18.79009 l -4.270475,0.51246 v 5.29539 h 49.708329 v -5.29539 l -6.149484,-0.51246 c -8.711769,-0.85409 -11.103235,-4.95375 -11.103235,-18.79009 v -30.23496 h 24.597936 l 38.434277,54.8329 z M 125.4552,81.062623 c 0,8.028493 -3.24556,24.085477 -29.380871,24.085477 H 67.376737 V 68.080379 c 0,-5.978665 3.245561,-10.078322 25.281212,-10.078322 21.864831,0 32.797251,7.686856 32.797251,23.060566 z"
               id="text28"
               style="font-size:170.819px;line-height:1.15;font-family:'Bookman Old Style';-inkscape-font-specification:'Bookman Old Style';letter-spacing:0px;word-spacing:0px;fill:#ffffff;fill-rule:evenodd;stroke-width:0.499999;stroke-linecap:square;stroke-miterlimit:3.3"
               aria-label="R" /><path
               id="path28"
               style="font-size:70.5556px;line-height:1.15;font-family:'Bookman Old Style';-inkscape-font-specification:'Bookman Old Style';letter-spacing:0px;word-spacing:0px;fill:#ffffff;fill-rule:evenodd;stroke-width:0.499999;stroke-linecap:square;stroke-miterlimit:3.3"
               d="M 168.61218,50.972273 144.10903,116.0304 h 9.90637 l 17.93224,-50.044695 18.01611,50.044695 3.17033,8.17355 7.67308,22.52012 c 1.55697,4.55961 2.33584,7.42372 2.33584,8.59142 0,1.61255 -0.80711,2.94709 -2.41965,4.00359 -0.83408,0.55604 -2.58566,0.83449 -5.2547,0.83449 -1.27892,0 -2.58522,0.0552 -3.91974,0.16633 v 7.00626 h 41.45327 v -7.00626 h -1.83415 c -3.05828,0 -5.50537,-0.77891 -7.34027,-2.33584 -1.77937,-1.61255 -3.55919,-4.86546 -5.33855,-9.75872 L 182.37445,50.972273 Z" /><path
               style="fill:none;fill-rule:evenodd;stroke:#f89633;stroke-width:4.99999;stroke-linecap:square;stroke-linejoin:miter;stroke-miterlimit:3.3;stroke-dasharray:none;stroke-opacity:1"
               d="m 145.13978,112.14152 c 9.68424,12.1053 14.52636,19.36848 14.52636,19.36848 l 63.37161,-71.854739"
               id="path29"
               sodipodi:nodetypes="ccc" /><path
               style="font-size:52.9167px;font-family:'Bookman Old Style';-inkscape-font-specification:'Bookman Old Style';fill:#ffffff;stroke-width:0.206051"
               d="m 64.058663,215.5477 c 0,-6.29708 -3.704169,-8.67833 -11.218341,-10.4775 l -6.614587,-1.5875 c -5.13292,-1.27 -7.196671,-2.91042 -7.196671,-5.76792 0,-3.175 3.386669,-5.66209 7.778755,-5.66209 5.080003,0 9.313339,2.69875 13.017508,8.36084 l 1.693334,-0.635 -3.227919,-9.57792 h -1.905001 l -0.635,1.905 c -2.963335,-1.79917 -5.979587,-2.59292 -10.001256,-2.59292 -8.837089,0 -12.117924,5.715 -12.117924,9.47209 0,7.14375 8.255005,8.99584 10.90084,9.68375 l 7.090837,1.79917 c 5.238754,1.27 7.037921,2.8575 7.037921,6.0325 0,4.49792 -4.127502,7.88459 -9.577922,7.88459 -6.08542,0 -11.430007,-3.81 -15.134176,-10.90084 l -1.957918,0.635 3.439586,12.11793 h 1.957918 l 1.005417,-2.64584 c 3.227918,2.27542 6.72042,3.33375 10.953756,3.33375 8.255005,0 14.710843,-5.02708 14.710843,-11.37709 z m 27.357926,4.55084 -1.746251,-0.84667 c -1.905001,3.49251 -4.339169,5.08001 -7.620004,5.08001 -7.196671,0 -8.995839,-5.66209 -8.995839,-13.38793 h 18.362094 c 0.05292,-8.62542 -7.620004,-10.84792 -11.53584,-10.84792 -7.249588,0 -12.488341,5.45042 -12.488341,13.07042 0,5.92667 3.757086,13.54668 13.070425,13.54668 4.868336,0 8.255005,-2.01084 10.953756,-6.61459 z M 85.913253,208.82728 H 73.213245 c 0.582084,-3.4925 2.010834,-6.61458 6.455837,-6.61458 5.45042,0 6.350004,5.13292 6.244171,6.45583 z m 35.718797,-10.10709 c 0,-1.32291 -1.16417,-2.27541 -2.8575,-2.27541 -3.86292,0 -5.55626,3.01625 -6.45584,4.70958 -2.11667,-0.79375 -3.33375,-1.05833 -4.97417,-1.05833 -6.0325,0 -10.900839,4.18042 -10.900839,9.41917 0,3.06917 1.428751,5.55625 4.286249,7.51417 -3.545416,1.16417 -5.185833,2.80459 -5.185833,5.29167 0,2.11667 1.164167,3.4925 3.862919,4.445 -3.915836,1.48167 -5.556254,3.17501 -5.556254,5.76792 0,3.86292 5.60917,6.45584 13.440838,6.45584 8.57251,0 14.12876,-3.38667 14.12876,-8.5725 0,-5.23876 -4.60375,-6.03251 -7.99042,-6.50876 l -10.10709,-1.37583 c -2.38125,-0.3175 -3.439584,-0.9525 -3.439584,-2.16959 0,-0.9525 0.899584,-2.01083 2.434164,-2.80458 2.11667,0.68792 3.17501,0.84667 4.97417,0.84667 8.73126,0 11.11251,-5.45042 11.11251,-8.89001 0,-2.91042 -1.64042,-5.66209 -4.39209,-7.51417 1.05834,-1.5875 1.90501,-2.27542 2.80459,-2.27542 1.00542,0 1.42875,1.00542 2.80458,1.00542 1.16417,0 2.01084,-0.84667 2.01084,-2.01084 z m -8.62542,10.53043 c 0,4.07458 -1.11125,7.46125 -5.55626,7.46125 -3.75708,0 -5.60917,-2.43417 -5.60917,-7.51417 0,-4.65667 2.11667,-7.40834 5.76792,-7.40834 3.65126,0 5.39751,2.43417 5.39751,7.46126 z m 4.70958,22.86001 c 0,1.95792 -2.16958,4.92125 -10.42459,4.92125 -6.08542,0 -10.265836,-2.06375 -10.265836,-5.02708 0,-2.01084 1.534585,-3.70417 4.392086,-4.76251 l 10.84792,1.32292 c 3.91584,0.47625 5.45042,1.48167 5.45042,3.54542 z m 38.36465,-5.87375 v -1.5875 l -1.32291,-0.10584 c -2.32834,-0.26458 -3.28084,-1.48166 -3.28084,-4.39208 v -19.57918 h -1.79917 c -2.75166,0.635 -3.81,0.74083 -7.99042,1.05833 v 1.5875 l 1.27,0.10584 c 2.69875,0.21166 3.49251,1.21708 3.49251,4.39208 v 11.80043 c -3.54542,3.12208 -6.66751,4.65667 -9.26043,4.65667 -3.33375,0 -4.81542,-1.79917 -4.81542,-5.82084 v -17.78001 h -1.79916 c -2.75167,0.635 -3.91584,0.79375 -7.99043,1.05833 v 1.5875 l 1.27001,0.10584 c 2.69875,0.21166 3.4925,1.21708 3.4925,4.39208 v 11.05959 c 0,6.35001 4.07458,7.93751 7.88459,7.93751 3.81,0 6.72042,-1.27 11.21834,-4.92126 v 4.44501 z m 25.08254,-23.17752 c 0,-1.74625 -1.5875,-2.96333 -3.86292,-2.96333 -4.39208,0 -6.93209,3.12208 -8.94292,4.70958 v -4.23333 h -1.79917 c -3.28083,0.635 -5.02708,0.84667 -7.99042,1.05833 v 1.5875 l 1.27,0.10584 c 2.69875,0.21166 3.4925,1.21708 3.4925,4.39208 v 12.43543 c 0,2.91042 -0.9525,4.1275 -3.28083,4.39208 l -1.32292,0.10584 v 1.5875 h 14.23459 v -1.5875 l -1.32292,-0.10584 c -2.32833,-0.26458 -3.28083,-1.48166 -3.28083,-4.39208 v -12.96459 c 1.905,-2.11667 3.33375,-2.96334 4.86834,-2.96334 0.89958,0 1.27,0.15875 2.2225,0.79375 0.89958,0.68792 1.74625,0.9525 2.69875,0.9525 1.74625,0 3.01625,-1.21708 3.01625,-2.91042 z m 27.19926,10.53043 c 0,-4.86834 -2.59292,-13.49376 -13.07043,-13.49376 -10.26584,0 -12.80584,8.62542 -12.80584,13.38792 0,7.99042 5.13292,13.22918 13.01751,13.22918 7.67292,0 12.85876,-5.29167 12.85876,-13.12334 z m -5.39751,0.26458 c 0,6.72042 -2.75167,10.74209 -7.40833,10.74209 -4.86834,0 -7.67293,-4.07459 -7.67293,-11.21834 0,-6.77334 2.96334,-11.16542 7.46126,-11.16542 4.7625,0 7.62,4.39208 7.62,11.64167 z m 32.96707,4.28625 c 0,-3.59833 -2.11667,-5.715 -6.72042,-6.82625 l -7.35542,-1.79917 c -1.79917,-0.42333 -4.1275,-1.00542 -4.1275,-3.33375 0,-2.27542 2.2225,-3.96875 5.34458,-3.96875 4.02167,0 7.51417,2.54 9.26043,6.72042 h 1.69333 l -1.69333,-8.14917 h -1.48167 l -0.52917,1.905 c -2.27542,-1.79917 -4.60375,-2.59292 -7.56709,-2.59292 -5.3975,0 -9.68375,3.38667 -9.68375,7.72584 0,3.33375 2.27542,5.29167 7.88459,6.72042 l 6.77333,1.69333 c 2.64584,0.68792 3.86292,1.79917 3.86292,3.4925 0,2.75167 -2.96333,4.86834 -6.82625,4.86834 -3.28084,0 -6.50876,-1.42875 -8.46667,-3.81 -0.9525,-1.11125 -1.48167,-2.16959 -2.22251,-4.18042 h -1.79916 l 1.79916,9.41917 h 1.74626 l 0.58208,-2.2225 c 2.8575,2.16958 5.08,2.91042 8.51959,2.91042 6.35,0 11.00667,-3.65125 11.00667,-8.57251 z"
               id="text2"
               aria-label="Seguros" /></g></g></g></g></g></svg>
